<svg width="38" height="39" viewBox="0 0 38 39" fill="none" xmlns="http://www.w3.org/2000/svg">
<path d="M18.5 22.8232L9.99997 27.5455M9.99997 27.5455L1.49997 22.8232M9.99997 27.5455L10 37.0455M19 31.604V23.4869C19 23.1443 19 22.973 18.9495 22.8202C18.9049 22.685 18.8318 22.5609 18.7354 22.4562C18.6263 22.3379 18.4766 22.2547 18.177 22.0883L10.777 17.9772C10.4934 17.8196 10.3516 17.7408 10.2015 17.71C10.0685 17.6826 9.93146 17.6826 9.79855 17.71C9.64838 17.7408 9.50658 17.8196 9.22297 17.9772L1.82297 22.0883C1.52345 22.2547 1.37369 22.3379 1.26463 22.4562C1.16816 22.5609 1.09515 22.685 1.05048 22.8202C1 22.973 1 23.1443 1 23.4869V31.604C1 31.9467 1 32.118 1.05048 32.2708C1.09515 32.406 1.16816 32.5301 1.26463 32.6348C1.37369 32.7531 1.52345 32.8363 1.82297 33.0027L9.22297 37.1138C9.50658 37.2714 9.64838 37.3501 9.79855 37.381C9.93146 37.4084 10.0685 37.4084 10.2015 37.381C10.3516 37.3501 10.4934 37.2714 10.777 37.1138L18.177 33.0027C18.4766 32.8363 18.6263 32.7531 18.7354 32.6348C18.8318 32.5301 18.9049 32.406 18.9495 32.2708C19 32.118 19 31.9467 19 31.604Z" stroke="#2361A9" stroke-width="2" stroke-linecap="round" stroke-linejoin="round"/>
<path d="M13.6833 14.1663C13.6452 13.7826 13.6256 13.3934 13.6256 12.9997C13.6256 6.55635 18.849 1.33301 25.2923 1.33301C31.7356 1.33301 36.959 6.55635 36.959 12.9997C36.959 19.443 31.7356 24.6663 25.2923 24.6663C25.0967 24.6663 24.9022 24.6615 24.709 24.652C24.5132 24.6424 24.3187 24.6279 24.1257 24.6087" stroke="#2361A9" stroke-width="2" stroke-linecap="round" stroke-linejoin="round"/>
<g clip-path="url(#clip0_3240_426)">
<path d="M21.8008 15.4892C21.8008 16.6919 22.7758 17.6669 23.9786 17.6669H26.0008C27.2894 17.6669 28.3341 16.6223 28.3341 15.3336C28.3341 14.0449 27.2894 13.0003 26.0008 13.0003H24.1341C22.8455 13.0003 21.8008 11.9556 21.8008 10.6669C21.8008 9.37826 22.8455 8.33359 24.1341 8.33359H26.1563C27.3591 8.33359 28.3341 9.30862 28.3341 10.5114M25.0674 6.93359V8.33359M25.0674 17.6669V19.0669" stroke="#1E579F" stroke-width="2" stroke-linecap="round" stroke-linejoin="round"/>
</g>
<defs>
<clipPath id="clip0_3240_426">
<rect width="14" height="14" fill="white" transform="translate(19 6)"/>
</clipPath>
</defs>
</svg>
