<svg width="40" height="40" viewBox="0 0 40 40" fill="none" xmlns="http://www.w3.org/2000/svg">
<path d="M31.6667 19.5533V11.5827C31.6667 10.2501 31.6667 9.58389 31.4487 9.01117C31.2562 8.50523 30.9434 8.0538 30.5372 7.69588C30.0775 7.29073 29.4537 7.05679 28.206 6.58891L19.2697 3.23779C18.9232 3.10785 18.7499 3.04289 18.5717 3.01713C18.4136 2.99429 18.2531 2.99429 18.095 3.01713C17.9167 3.04289 17.7435 3.10785 17.397 3.23779L8.46067 6.58891C7.213 7.05679 6.58916 7.29073 6.12943 7.69588C5.7233 8.0538 5.41046 8.50523 5.21793 9.01117C5 9.58389 5 10.2501 5 11.5827V19.5533C5 27.7341 13.9233 33.684 17.17 35.5781C17.539 35.7934 17.7235 35.901 17.9839 35.9569C18.1859 36.0002 18.4807 36.0002 18.6828 35.9569C18.9432 35.901 19.1277 35.7934 19.4967 35.5781" stroke="#1E579F" stroke-width="2" stroke-linecap="round" stroke-linejoin="round"/>
<path d="M37.5208 28.155L31.5 31.4999M31.5 31.4999L25.4791 28.155M31.5 31.4999L31.5 38.2291M37.875 34.3747V28.6251C37.875 28.3824 37.875 28.261 37.8392 28.1528C37.8076 28.0571 37.7559 27.9692 37.6876 27.895C37.6103 27.8112 37.5042 27.7523 37.2921 27.6344L32.0504 24.7224C31.8495 24.6108 31.7491 24.555 31.6427 24.5331C31.5486 24.5137 31.4515 24.5137 31.3573 24.5331C31.2509 24.555 31.1505 24.6108 30.9496 24.7224L25.7079 27.6344C25.4958 27.7523 25.3897 27.8112 25.3124 27.895C25.2441 27.9692 25.1924 28.0571 25.1608 28.1528C25.125 28.2611 25.125 28.3824 25.125 28.6251V34.3747C25.125 34.6174 25.125 34.7388 25.1608 34.847C25.1924 34.9428 25.2441 35.0307 25.3124 35.1048C25.3897 35.1886 25.4958 35.2476 25.7079 35.3654L30.9496 38.2775C31.1505 38.3891 31.2509 38.4449 31.3573 38.4668C31.4515 38.4861 31.5486 38.4861 31.6427 38.4668C31.7491 38.4449 31.8495 38.3891 32.0504 38.2775L37.2921 35.3654C37.5042 35.2476 37.6103 35.1886 37.6876 35.1048C37.7559 35.0307 37.8076 34.9428 37.8392 34.847C37.875 34.7388 37.875 34.6174 37.875 34.3747Z" stroke="#1E579F" stroke-width="2" stroke-linecap="round" stroke-linejoin="round"/>
<path d="M20 11L14 17L22 21L16 27" stroke="#1E579F" stroke-width="2" stroke-linecap="round" stroke-linejoin="round"/>
</svg>
