<svg width="40" height="40" viewBox="0 0 40 40" fill="none" xmlns="http://www.w3.org/2000/svg">
<path d="M17.0007 29.1663H5.83398M10.834 19.9997H2.33398M16.0007 10.833H6.66732" stroke="#1E579F" stroke-width="2" stroke-linecap="round" stroke-linejoin="round"/>
<path d="M37.4444 14.7297L28 20M28 20L18.5555 14.7297M28 20L28 30.6026M38 24.5296V15.4704C38 15.088 38 14.8968 37.9439 14.7262C37.8943 14.5754 37.8132 14.4369 37.706 14.32C37.5848 14.188 37.4184 14.0951 37.0856 13.9094L28.8634 9.32112C28.5483 9.14527 28.3907 9.05735 28.2238 9.02288C28.0762 8.99237 27.9238 8.99237 27.7762 9.02288C27.6093 9.05735 27.4518 9.14527 27.1366 9.32112L18.9144 13.9094C18.5816 14.0951 18.4152 14.188 18.294 14.32C18.1868 14.4369 18.1057 14.5754 18.0561 14.7262C18 14.8968 18 15.088 18 15.4704V24.5296C18 24.912 18 25.1032 18.0561 25.2738C18.1057 25.4246 18.1868 25.5631 18.294 25.68C18.4152 25.812 18.5816 25.9049 18.9144 26.0906L27.1366 30.6789C27.4518 30.8547 27.6093 30.9426 27.7762 30.9771C27.9238 31.0076 28.0762 31.0076 28.2238 30.9771C28.3907 30.9426 28.5483 30.8547 28.8634 30.6789L37.0856 26.0906C37.4184 25.9049 37.5848 25.812 37.706 25.68C37.8132 25.5631 37.8943 25.4246 37.9439 25.2738C38 25.1032 38 24.912 38 24.5296Z" stroke="#1E579F" stroke-width="2" stroke-linecap="round" stroke-linejoin="round"/>
</svg>
