<svg width="40" height="40" viewBox="0 0 40 40" fill="none" xmlns="http://www.w3.org/2000/svg">
<path d="M20.0007 26.6667V35M30.0007 35L23.415 29.5119C22.2003 28.4997 21.593 27.9936 20.9151 27.8002C20.3174 27.6297 19.6839 27.6297 19.0862 27.8002C18.4083 27.9936 17.801 28.4997 16.5863 29.5119L10.0007 35M13.334 18.3333V20M20.0007 15V20M26.6673 11.6667V20M36.6673 5H3.33398M5.00065 5H35.0007V18.6667C35.0007 21.4669 35.0007 22.8671 34.4557 23.9366C33.9763 24.8774 33.2114 25.6423 32.2706 26.1217C31.201 26.6667 29.8009 26.6667 27.0007 26.6667H13.0007C10.2004 26.6667 8.80026 26.6667 7.7307 26.1217C6.78989 25.6423 6.02499 24.8774 5.54562 23.9366C5.00065 22.8671 5.00065 21.4669 5.00065 18.6667V5Z" stroke="#1E579F" stroke-width="2" stroke-linecap="round" stroke-linejoin="round"/>
</svg>
