<svg width="30" height="30" viewBox="0 0 30 30" fill="none" xmlns="http://www.w3.org/2000/svg">
<path d="M19.8125 5.375H10.1875C9.4584 5.3758 8.75939 5.66578 8.24384 6.18134C7.72828 6.69689 7.4383 7.3959 7.4375 8.125V21.875C7.4383 22.6041 7.72828 23.3031 8.24384 23.8187C8.75939 24.3342 9.4584 24.6242 10.1875 24.625H19.8125C20.5416 24.6242 21.2406 24.3342 21.7562 23.8187C22.2717 23.3031 22.5617 22.6041 22.5625 21.875V8.125C22.5617 7.3959 22.2717 6.69689 21.7562 6.18134C21.2406 5.66578 20.5416 5.3758 19.8125 5.375ZM15 17.0625H11.5625C11.3802 17.0625 11.2053 16.9901 11.0764 16.8611C10.9474 16.7322 10.875 16.5573 10.875 16.375C10.875 16.1927 10.9474 16.0178 11.0764 15.8889C11.2053 15.7599 11.3802 15.6875 11.5625 15.6875H15C15.1823 15.6875 15.3572 15.7599 15.4861 15.8889C15.6151 16.0178 15.6875 16.1927 15.6875 16.375C15.6875 16.5573 15.6151 16.7322 15.4861 16.8611C15.3572 16.9901 15.1823 17.0625 15 17.0625ZM18.4375 13.625H11.5625C11.3802 13.625 11.2053 13.5526 11.0764 13.4236C10.9474 13.2947 10.875 13.1198 10.875 12.9375C10.875 12.7552 10.9474 12.5803 11.0764 12.4514C11.2053 12.3224 11.3802 12.25 11.5625 12.25H18.4375C18.6198 12.25 18.7947 12.3224 18.9236 12.4514C19.0526 12.5803 19.125 12.7552 19.125 12.9375C19.125 13.1198 19.0526 13.2947 18.9236 13.4236C18.7947 13.5526 18.6198 13.625 18.4375 13.625ZM18.4375 10.1875H11.5625C11.3802 10.1875 11.2053 10.1151 11.0764 9.98614C10.9474 9.8572 10.875 9.68234 10.875 9.5C10.875 9.31766 10.9474 9.1428 11.0764 9.01386C11.2053 8.88493 11.3802 8.8125 11.5625 8.8125H18.4375C18.6198 8.8125 18.7947 8.88493 18.9236 9.01386C19.0526 9.1428 19.125 9.31766 19.125 9.5C19.125 9.68234 19.0526 9.8572 18.9236 9.98614C18.7947 10.1151 18.6198 10.1875 18.4375 10.1875Z" fill="#0061AF"/>
</svg>
