<svg width="164" height="50" viewBox="0 0 164 50" fill="none" xmlns="http://www.w3.org/2000/svg">
<g clip-path="url(#clip0_3237_442)">
<path fill-rule="evenodd" clip-rule="evenodd" d="M101.254 38.4504C91.7993 45.4414 78.0465 49.1661 66.1847 49.1661C49.5667 49.1661 34.6678 43.0347 23.3218 32.8347C22.4622 32.0324 23.2071 30.9437 24.2959 31.574C36.5015 38.6796 51.5723 42.9201 67.1588 42.9201C77.6454 42.9201 89.2206 40.7425 99.8791 36.2156C101.484 35.5852 102.859 37.3043 101.254 38.4504Z" fill="#FF9900"/>
<path fill-rule="evenodd" clip-rule="evenodd" d="M105.208 33.9809C104.005 32.4337 97.1857 33.236 94.1486 33.6371C93.2317 33.7517 93.0598 32.9494 93.9194 32.3764C99.3632 28.5371 108.245 29.6832 109.277 30.9438C110.308 32.2045 108.99 41.1438 103.89 45.3843C103.088 46.0146 102.343 45.6708 102.687 44.8112C103.833 41.8888 106.412 35.5281 105.208 33.9809Z" fill="#FF9900"/>
<path fill-rule="evenodd" clip-rule="evenodd" d="M94.3218 5.38669V1.66197C94.3218 1.08894 94.7229 0.745117 95.2387 0.745117H111.857C112.372 0.745117 112.831 1.14624 112.831 1.66197V4.81366C112.831 5.32939 112.372 6.01703 111.57 7.16309L102.975 19.426C106.184 19.3687 109.565 19.8271 112.43 21.4316C113.06 21.7755 113.232 22.3485 113.289 22.8642V26.8182C113.289 27.3912 112.716 28.0215 112.086 27.6777C106.986 24.9844 100.167 24.6979 94.551 27.735C93.978 28.0215 93.3477 27.4485 93.3477 26.8755V23.0934C93.3477 22.5204 93.3477 21.4889 93.978 20.5721L104.006 6.30354H95.3533C94.7802 6.30354 94.3791 5.90242 94.3218 5.38669Z" fill="black"/>
<path fill-rule="evenodd" clip-rule="evenodd" d="M33.7525 28.5367H28.7098C28.2514 28.4794 27.8503 28.1356 27.793 27.6771V1.77602C27.793 1.26029 28.2514 0.859167 28.7671 0.859167H33.466C33.9817 0.859167 34.3256 1.26029 34.3829 1.71872V5.09962H34.4975C35.7008 1.83332 38.0503 0.286133 41.1447 0.286133C44.2963 0.286133 46.302 1.83332 47.6772 5.09962C48.8806 1.83332 51.6885 0.286133 54.6682 0.286133C56.7885 0.286133 59.0806 1.14568 60.5132 3.1513C62.1177 5.32883 61.7739 8.48052 61.7739 11.2884V27.6771C61.7739 28.1929 61.3154 28.594 60.7997 28.594H55.757C55.2413 28.5367 54.8402 28.1356 54.8402 27.6771V13.9243C54.8402 12.8356 54.9548 10.085 54.7256 9.05355C54.3244 7.33445 53.2357 6.81872 51.7458 6.81872C50.5424 6.81872 49.2244 7.62097 48.7087 8.93894C48.193 10.2569 48.2503 12.4344 48.2503 13.9243V27.6771C48.2503 28.1929 47.7918 28.594 47.2761 28.594H42.2334C41.7177 28.5367 41.3166 28.1356 41.3166 27.6771V13.9243C41.3166 11.0592 41.775 6.76141 38.2222 6.76141C34.6121 6.76141 34.7267 10.8873 34.7267 13.9243V27.6771C34.7267 28.0783 34.3256 28.5367 33.7525 28.5367Z" fill="black"/>
<path fill-rule="evenodd" clip-rule="evenodd" d="M127.155 0.229492C134.662 0.229492 138.673 6.70477 138.673 14.8992C138.673 22.807 134.204 29.1104 127.098 29.1104C119.763 29.0531 115.752 22.6351 115.752 14.6126C115.752 6.53286 119.82 0.229492 127.155 0.229492ZM127.213 5.55871C123.488 5.55871 123.259 10.6587 123.259 13.8104C123.259 16.9621 123.201 23.7239 127.155 23.7239C131.052 23.7239 131.281 18.2801 131.281 14.9565C131.281 12.7789 131.167 10.143 130.536 8.08006C129.906 6.24635 128.817 5.55871 127.213 5.55871Z" fill="black"/>
<path fill-rule="evenodd" clip-rule="evenodd" d="M148.417 28.5367H143.374C142.858 28.4794 142.457 28.0783 142.457 27.6198V1.66141C142.514 1.20299 142.915 0.801863 143.431 0.801863H148.13C148.588 0.801863 148.932 1.14568 149.047 1.54681V5.50074H149.162C150.594 1.94793 152.542 0.286133 156.038 0.286133C158.273 0.286133 160.508 1.08838 161.94 3.32321C163.258 5.38613 163.258 8.88164 163.258 11.403V27.7344C163.201 28.1929 162.8 28.5367 162.284 28.5367H157.241C156.783 28.4794 156.382 28.1356 156.324 27.7344V13.6378C156.324 10.7726 156.668 6.64681 153.173 6.64681C151.969 6.64681 150.823 7.44905 150.25 8.70973C149.563 10.3142 149.448 11.8614 149.448 13.6378V27.6198C149.391 28.0783 148.99 28.5367 148.417 28.5367Z" fill="black"/>
<path fill-rule="evenodd" clip-rule="evenodd" d="M81.0844 16.1022C81.0844 18.0506 81.1417 19.7124 80.1676 21.4888C79.3653 22.9214 78.1047 23.7809 76.6721 23.7809C74.7238 23.7809 73.5777 22.291 73.5777 20.1135C73.5777 15.8157 77.417 15.0135 81.0844 15.0135V16.1022ZM86.1844 28.4225C85.8406 28.709 85.3822 28.7663 84.9811 28.5371C83.3193 27.1618 82.9754 26.4742 82.0586 25.1562C79.308 27.964 77.3024 28.8236 73.7496 28.8236C69.5091 28.8236 66.1855 26.1876 66.1855 20.973C66.1855 16.8472 68.4204 14.0966 71.5721 12.7213C74.3226 11.518 78.162 11.2888 81.0844 10.9449V10.3146C81.0844 9.11124 81.199 7.67865 80.4541 6.64719C79.8237 5.73034 78.6777 5.32921 77.6462 5.32921C75.6979 5.32921 73.9788 6.30337 73.5777 8.36629C73.4631 8.82472 73.1766 9.28315 72.7181 9.28315L67.8473 8.76742C67.4462 8.65281 66.9878 8.36629 67.1024 7.73596C68.1912 1.7764 73.5777 0 78.3912 0C80.8552 0 84.0642 0.630337 86.0125 2.52135C88.4766 4.81348 88.2473 7.90787 88.2473 11.2315V19.082C88.2473 21.4315 89.2215 22.4629 90.1384 23.7809C90.4822 24.2393 90.5395 24.8124 90.1384 25.0989C89.0496 25.9584 87.2159 27.5629 86.1844 28.4225Z" fill="black"/>
<path fill-rule="evenodd" clip-rule="evenodd" d="M14.8989 16.1022C14.8989 18.0506 14.9562 19.7124 13.982 21.4888C13.1798 22.9214 11.9191 23.7809 10.4865 23.7809C8.5382 23.7809 7.39214 22.291 7.39214 20.1135C7.39214 15.8157 11.2315 15.0135 14.8989 15.0135V16.1022ZM19.9989 28.4225C19.6551 28.709 19.1966 28.7663 18.7955 28.5371C17.1337 27.1618 16.7899 26.4742 15.873 25.1562C13.1225 27.964 11.1169 28.8236 7.56405 28.8236C3.3236 28.8809 0 26.2449 0 20.973C0 16.8472 2.23483 14.0966 5.38652 12.7213C8.13708 11.518 11.9764 11.2888 14.8989 10.9449V10.3146C14.8989 9.11124 15.0135 7.67865 14.2685 6.64719C13.6382 5.73034 12.4921 5.38652 11.4607 5.38652C9.51236 5.38652 7.79326 6.36067 7.39214 8.4236C7.27753 8.88202 6.99101 9.34045 6.53258 9.34045L1.6618 8.82472C1.26067 8.71011 0.802247 8.4236 0.916854 7.79326C1.94831 1.7764 7.33483 0 12.1483 0C14.6124 0 17.8214 0.630337 19.7697 2.52135C22.2337 4.81348 22.0045 7.90787 22.0045 11.2315V19.082C22.0045 21.4315 22.9787 22.4629 23.8955 23.7809C24.2393 24.2393 24.2966 24.8124 23.8955 25.0989C22.8067 25.9584 20.973 27.5629 19.9989 28.4225Z" fill="black"/>
</g>
<defs>
<clipPath id="clip0_3237_442">
<rect width="163.2" height="49.1663" fill="white"/>
</clipPath>
</defs>
</svg>
