<svg width="61" height="61" viewBox="0 0 61 61" fill="none" xmlns="http://www.w3.org/2000/svg">
<path d="M3 3H6.62473C7.30746 3 7.64882 3 7.92353 3.12667C8.16562 3.2383 8.37078 3.41783 8.51454 3.64385C8.67767 3.90032 8.72595 4.24129 8.8225 4.92322L10.136 14.2L13.0551 35.8479C13.4255 38.5951 13.6107 39.9686 14.2616 41.0026C14.8352 41.9136 15.6575 42.638 16.6295 43.0886C17.7326 43.6 19.1065 43.6 21.8543 43.6H45.6033C48.219 43.6 49.5268 43.6 50.5956 43.1252C51.538 42.7065 52.3464 42.0315 52.9304 41.1758C53.5927 40.2053 53.8374 38.9091 54.3268 36.3165L58 16.8591" stroke="#2361A9" stroke-width="2" stroke-linecap="round" stroke-linejoin="round"/>
<path d="M21.9 59C24.6062 59 26.8 56.7614 26.8 54C26.8 51.2386 24.6062 49 21.9 49C19.1938 49 17 51.2386 17 54C17 56.7614 19.1938 59 21.9 59Z" stroke="#2361A9" stroke-width="2" stroke-linecap="round" stroke-linejoin="round"/>
<path d="M44.9 59C47.6062 59 49.8 56.7614 49.8 54C49.8 51.2386 47.6062 49 44.9 49C42.1938 49 40 51.2386 40 54C40 56.7614 42.1938 59 44.9 59Z" stroke="#2361A9" stroke-width="2" stroke-linecap="round" stroke-linejoin="round"/>
<g clip-path="url(#clip0_3240_322)">
<path d="M47.131 29.2576C32.963 36.0003 24.1703 30.3589 18.5417 26.9324C18.1934 26.7164 17.6015 26.9828 18.1151 27.5728C19.9902 29.8465 26.1355 35.3266 34.1568 35.3266C42.1837 35.3266 46.9589 30.9468 47.5563 30.1828C48.1496 29.4252 47.7305 29.0073 47.1309 29.2576H47.131ZM51.11 27.0601C50.7296 26.5647 48.7965 26.4723 47.58 26.6218C46.3616 26.7669 44.5327 27.5115 44.6917 27.9587C44.7733 28.1261 44.9399 28.051 45.7769 27.9758C46.6162 27.892 48.9674 27.5953 49.4573 28.2357C49.9495 28.8806 48.7074 31.9526 48.4805 32.4481C48.2614 32.9435 48.5643 33.0713 48.976 32.7413C49.382 32.4115 50.1171 31.5572 50.6104 30.3484C51.1003 29.1329 51.3992 27.4374 51.11 27.0601Z" fill="#2361A9"/>
<path fill-rule="evenodd" clip-rule="evenodd" d="M37.6037 15.4987C37.6037 17.2679 37.6484 18.7433 36.7541 20.3145C36.0324 21.592 34.8891 22.3776 33.6117 22.3776C31.868 22.3776 30.8524 21.049 30.8524 19.0883C30.8524 15.2176 34.3206 14.5151 37.6037 14.5151V15.4987ZM42.1832 26.5676C41.8829 26.8358 41.4486 26.855 41.1101 26.6761C39.6028 25.4243 39.3345 24.8431 38.5042 23.6486C36.0133 26.1908 34.2504 26.9507 31.0186 26.9507C27.1991 26.9507 24.2227 24.5939 24.2227 19.8738C24.2227 16.1886 26.2219 13.6784 29.064 12.4522C31.5295 11.3662 34.9722 11.1746 37.6037 10.8745V10.2869C37.6037 9.2074 37.6866 7.93002 37.0544 6.99756C36.4986 6.16083 35.4384 5.8159 34.5058 5.8159C32.775 5.8159 31.2293 6.70366 30.8524 8.54313C30.7757 8.95201 30.4756 9.35442 30.0669 9.37354L25.6597 8.90098C25.2893 8.81778 24.8806 8.51768 24.9828 7.94914C25.9983 2.60965 30.8204 1 35.138 1C37.348 1 40.2349 1.58767 41.9787 3.26114C44.1886 5.32409 43.9778 8.0769 43.9778 11.0725V18.1494C43.9778 20.2763 44.8592 21.2087 45.6895 22.3585C45.9833 22.7672 46.0472 23.2592 45.6767 23.5656C44.7506 24.3384 43.1027 25.7755 42.1958 26.5804L42.183 26.5676" fill="#2361A9"/>
<path d="M47.131 29.2576C32.963 36.0003 24.1703 30.3589 18.5417 26.9324C18.1934 26.7164 17.6015 26.9828 18.1151 27.5728C19.9902 29.8465 26.1355 35.3266 34.1568 35.3266C42.1837 35.3266 46.9589 30.9468 47.5563 30.1828C48.1496 29.4252 47.7305 29.0073 47.1309 29.2576H47.131ZM51.11 27.0601C50.7296 26.5647 48.7965 26.4723 47.58 26.6218C46.3616 26.7669 44.5327 27.5115 44.6917 27.9587C44.7733 28.1261 44.9399 28.051 45.7769 27.9758C46.6162 27.892 48.9674 27.5953 49.4573 28.2357C49.9495 28.8806 48.7074 31.9526 48.4805 32.4481C48.2614 32.9435 48.5643 33.0713 48.976 32.7413C49.382 32.4115 50.1171 31.5572 50.6104 30.3484C51.1003 29.1329 51.3992 27.4374 51.11 27.0601Z" fill="#2361A9"/>
<path fill-rule="evenodd" clip-rule="evenodd" d="M37.6037 15.4987C37.6037 17.2679 37.6484 18.7433 36.7541 20.3145C36.0324 21.592 34.8891 22.3776 33.6117 22.3776C31.868 22.3776 30.8524 21.049 30.8524 19.0883C30.8524 15.2176 34.3206 14.5151 37.6037 14.5151V15.4987ZM42.1832 26.5676C41.8829 26.8358 41.4486 26.855 41.1101 26.6761C39.6028 25.4243 39.3345 24.8431 38.5042 23.6486C36.0133 26.1908 34.2504 26.9507 31.0186 26.9507C27.1991 26.9507 24.2227 24.5939 24.2227 19.8738C24.2227 16.1886 26.2219 13.6784 29.064 12.4522C31.5295 11.3662 34.9722 11.1746 37.6037 10.8745V10.2869C37.6037 9.2074 37.6866 7.93002 37.0544 6.99756C36.4986 6.16083 35.4384 5.8159 34.5058 5.8159C32.775 5.8159 31.2293 6.70366 30.8524 8.54313C30.7757 8.95201 30.4756 9.35442 30.0669 9.37354L25.6597 8.90098C25.2893 8.81778 24.8806 8.51768 24.9828 7.94914C25.9983 2.60965 30.8204 1 35.138 1C37.348 1 40.2349 1.58767 41.9787 3.26114C44.1886 5.32409 43.9778 8.0769 43.9778 11.0725V18.1494C43.9778 20.2763 44.8592 21.2087 45.6895 22.3585C45.9833 22.7672 46.0472 23.2592 45.6767 23.5656C44.7506 24.3384 43.1027 25.7755 42.1958 26.5804L42.183 26.5676" fill="#2361A9"/>
</g>
<defs>
<clipPath id="clip0_3240_322">
<rect width="35" height="35" fill="white" transform="translate(17 1)"/>
</clipPath>
</defs>
</svg>
