<svg width="82" height="24" viewBox="0 0 82 24" fill="none" xmlns="http://www.w3.org/2000/svg">
<path d="M81.0607 13.0607C81.6464 12.4749 81.6464 11.5251 81.0607 10.9393L71.5147 1.3934C70.9289 0.807611 69.9792 0.807611 69.3934 1.3934C68.8076 1.97919 68.8076 2.92893 69.3934 3.51472L77.8787 12L69.3934 20.4853C68.8076 21.0711 68.8076 22.0208 69.3934 22.6066C69.9792 23.1924 70.9289 23.1924 71.5147 22.6066L81.0607 13.0607ZM4 13.5C4.82843 13.5 5.5 12.8284 5.5 12C5.5 11.1716 4.82843 10.5 4 10.5V13.5ZM12 10.5C11.1716 10.5 10.5 11.1716 10.5 12C10.5 12.8284 11.1716 13.5 12 13.5V10.5ZM20 13.5C20.8284 13.5 21.5 12.8284 21.5 12C21.5 11.1716 20.8284 10.5 20 10.5V13.5ZM28 10.5C27.1716 10.5 26.5 11.1716 26.5 12C26.5 12.8284 27.1716 13.5 28 13.5V10.5ZM36 13.5C36.8284 13.5 37.5 12.8284 37.5 12C37.5 11.1716 36.8284 10.5 36 10.5V13.5ZM44 10.5C43.1716 10.5 42.5 11.1716 42.5 12C42.5 12.8284 43.1716 13.5 44 13.5V10.5ZM52 13.5C52.8284 13.5 53.5 12.8284 53.5 12C53.5 11.1716 52.8284 10.5 52 10.5V13.5ZM60 10.5C59.1716 10.5 58.5 11.1716 58.5 12C58.5 12.8284 59.1716 13.5 60 13.5V10.5ZM68 13.5C68.8284 13.5 69.5 12.8284 69.5 12C69.5 11.1716 68.8284 10.5 68 10.5V13.5ZM76 10.5C75.1716 10.5 74.5 11.1716 74.5 12C74.5 12.8284 75.1716 13.5 76 13.5V10.5ZM0 13.5H4V10.5H0V13.5ZM12 13.5H20V10.5H12V13.5ZM28 13.5H36V10.5H28V13.5ZM44 13.5H52V10.5H44V13.5ZM60 13.5H68V10.5H60V13.5ZM76 13.5H80V10.5H76V13.5ZM81.0607 13.0607C81.6464 12.4749 81.6464 11.5251 81.0607 10.9393L71.5147 1.3934C70.9289 0.807611 69.9792 0.807611 69.3934 1.3934C68.8076 1.97919 68.8076 2.92893 69.3934 3.51472L77.8787 12L69.3934 20.4853C68.8076 21.0711 68.8076 22.0208 69.3934 22.6066C69.9792 23.1924 70.9289 23.1924 71.5147 22.6066L81.0607 13.0607ZM4 13.5C4.82843 13.5 5.5 12.8284 5.5 12C5.5 11.1716 4.82843 10.5 4 10.5V13.5ZM12 10.5C11.1716 10.5 10.5 11.1716 10.5 12C10.5 12.8284 11.1716 13.5 12 13.5V10.5ZM20 13.5C20.8284 13.5 21.5 12.8284 21.5 12C21.5 11.1716 20.8284 10.5 20 10.5V13.5ZM28 10.5C27.1716 10.5 26.5 11.1716 26.5 12C26.5 12.8284 27.1716 13.5 28 13.5V10.5ZM36 13.5C36.8284 13.5 37.5 12.8284 37.5 12C37.5 11.1716 36.8284 10.5 36 10.5V13.5ZM44 10.5C43.1716 10.5 42.5 11.1716 42.5 12C42.5 12.8284 43.1716 13.5 44 13.5V10.5ZM52 13.5C52.8284 13.5 53.5 12.8284 53.5 12C53.5 11.1716 52.8284 10.5 52 10.5V13.5ZM60 10.5C59.1716 10.5 58.5 11.1716 58.5 12C58.5 12.8284 59.1716 13.5 60 13.5V10.5ZM68 13.5C68.8284 13.5 69.5 12.8284 69.5 12C69.5 11.1716 68.8284 10.5 68 10.5V13.5ZM76 10.5C75.1716 10.5 74.5 11.1716 74.5 12C74.5 12.8284 75.1716 13.5 76 13.5V10.5ZM0 13.5H4V10.5H0V13.5ZM12 13.5H20V10.5H12V13.5ZM28 13.5H36V10.5H28V13.5ZM44 13.5H52V10.5H44V13.5ZM60 13.5H68V10.5H60V13.5ZM76 13.5H80V10.5H76V13.5Z" fill="#0061AF"/>
</svg>
