<svg width="8" height="14" viewBox="0 0 8 14" fill="none" xmlns="http://www.w3.org/2000/svg">
<path d="M7.99898 7.04362C7.98946 7.32937 7.87439 7.60176 7.67543 7.8091L2.02751 13.6413C1.73581 13.9422 1.30442 14.0659 0.895824 13.966C0.487245 13.8659 0.163359 13.5575 0.0464929 13.1567C-0.0705502 12.7559 0.036972 12.3237 0.32867 12.0228L5.18992 7L0.328671 1.9772C0.0369708 1.67631 -0.0705497 1.24409 0.0464934 0.843287C0.163368 0.442484 0.487233 0.134129 0.895825 0.0340228C1.3044 -0.0658918 1.73579 0.0577812 2.02751 0.35867L7.67543 6.19091C7.89556 6.42003 8.01227 6.72793 7.99898 7.04395L7.99898 7.04362Z" fill="white"/>
</svg>
