<svg width="14" height="20" fill="none" xmlns="http://www.w3.org/2000/svg"><path d="M13.75 2.34c0-.555-.214-1.086-.594-1.477A1.996 1.996 0 0 0 11.725.25h-9.45C1.738.25 1.223.47.844.863c-.38.391-.593.922-.594 1.476v15.322c0 .554.214 1.085.594 1.476.38.392.894.612 1.431.613h9.45c.537 0 1.052-.22 1.431-.613.38-.391.593-.922.594-1.476V2.339ZM3.287 17.66a.991.991 0 0 1-.562-.175 1.039 1.039 0 0 1-.373-.47 1.075 1.075 0 0 1 .22-1.138.984.984 0 0 1 1.103-.226c.185.079.343.213.454.385a1.068 1.068 0 0 1-.126 1.319.997.997 0 0 1-.716.306Zm0-3.481a.99.99 0 0 1-.562-.177 1.038 1.038 0 0 1-.373-.468 1.076 1.076 0 0 1 .22-1.139.983.983 0 0 1 1.103-.227c.185.08.343.214.454.386a1.068 1.068 0 0 1-.126 1.319.997.997 0 0 1-.716.306Zm0-3.483a.99.99 0 0 1-.562-.176 1.039 1.039 0 0 1-.373-.468 1.076 1.076 0 0 1 .22-1.139.984.984 0 0 1 1.103-.226c.185.079.343.213.454.384a1.068 1.068 0 0 1-.126 1.32.997.997 0 0 1-.716.305ZM7 17.661a.991.991 0 0 1-.563-.176 1.039 1.039 0 0 1-.372-.47 1.075 1.075 0 0 1 .219-1.138.984.984 0 0 1 1.103-.226c.185.079.344.213.455.385a1.068 1.068 0 0 1-.126 1.319.997.997 0 0 1-.716.306Zm0-3.482a.99.99 0 0 1-.563-.177 1.038 1.038 0 0 1-.372-.468 1.076 1.076 0 0 1 .219-1.139.983.983 0 0 1 1.103-.227c.185.08.344.214.455.386a1.068 1.068 0 0 1-.126 1.319.997.997 0 0 1-.716.306Zm0-3.483a.99.99 0 0 1-.563-.176 1.039 1.039 0 0 1-.372-.468 1.076 1.076 0 0 1 .219-1.139.984.984 0 0 1 1.103-.226c.185.079.344.213.455.384a1.068 1.068 0 0 1-.126 1.32.997.997 0 0 1-.716.305Zm4.725 5.92c0 .277-.107.543-.297.739a.996.996 0 0 1-.716.306.997.997 0 0 1-.715-.306 1.062 1.062 0 0 1-.297-.739v-3.482c0-.277.107-.543.297-.739a.997.997 0 0 1 .716-.306c.268 0 .526.11.715.306.19.196.297.462.297.739v3.482Zm-1.012-5.92a.99.99 0 0 1-.563-.176 1.039 1.039 0 0 1-.373-.468 1.076 1.076 0 0 1 .22-1.139.984.984 0 0 1 1.103-.226c.185.079.343.213.454.384a1.069 1.069 0 0 1-.126 1.32.997.997 0 0 1-.716.305Zm.814-4.382a.665.665 0 0 1-.477.204h-8.1a.665.665 0 0 1-.477-.204.708.708 0 0 1-.198-.493V3.036c0-.185.071-.362.198-.493a.665.665 0 0 1 .477-.204h8.1c.179 0 .35.074.477.204s.198.308.198.493V5.82a.708.708 0 0 1-.198.493Z" fill="#0061AF"/></svg>