<svg width="30" height="30" viewBox="0 0 30 30" fill="none" xmlns="http://www.w3.org/2000/svg">
<path d="M21.75 7.33929C21.7494 6.78535 21.5359 6.25427 21.1563 5.86257C20.7766 5.47088 20.2619 5.25058 19.725 5.25H10.275C9.73811 5.25058 9.22337 5.47088 8.84373 5.86257C8.46409 6.25427 8.25056 6.78535 8.25 7.33929V22.6607C8.25056 23.2147 8.46409 23.7457 8.84373 24.1374C9.22337 24.5291 9.73811 24.7494 10.275 24.75H19.725C20.2619 24.7494 20.7766 24.5291 21.1563 24.1374C21.5359 23.7457 21.7494 23.2147 21.75 22.6607V7.33929ZM11.2875 22.6607C11.0872 22.6607 10.8915 22.5994 10.725 22.4847C10.5585 22.3699 10.4287 22.2067 10.3521 22.0158C10.2754 21.825 10.2554 21.6149 10.2945 21.4123C10.3335 21.2096 10.43 21.0235 10.5716 20.8774C10.7132 20.7313 10.8936 20.6318 11.09 20.5915C11.2864 20.5512 11.49 20.5719 11.675 20.6509C11.86 20.73 12.0181 20.8639 12.1294 21.0357C12.2406 21.2075 12.3 21.4095 12.3 21.6161C12.3 21.8931 12.1933 22.1588 12.0034 22.3547C11.8136 22.5507 11.556 22.6607 11.2875 22.6607ZM11.2875 19.1786C11.0872 19.1786 10.8915 19.1173 10.725 19.0025C10.5585 18.8877 10.4287 18.7246 10.3521 18.5337C10.2754 18.3428 10.2554 18.1328 10.2945 17.9301C10.3335 17.7275 10.43 17.5414 10.5716 17.3953C10.7132 17.2492 10.8936 17.1497 11.09 17.1094C11.2864 17.0691 11.49 17.0897 11.675 17.1688C11.86 17.2479 12.0181 17.3818 12.1294 17.5536C12.2406 17.7253 12.3 17.9273 12.3 18.1339C12.3 18.411 12.1933 18.6767 12.0034 18.8726C11.8136 19.0685 11.556 19.1786 11.2875 19.1786ZM11.2875 15.6964C11.0872 15.6964 10.8915 15.6352 10.725 15.5204C10.5585 15.4056 10.4287 15.2424 10.3521 15.0516C10.2754 14.8607 10.2554 14.6506 10.2945 14.448C10.3335 14.2453 10.43 14.0592 10.5716 13.9131C10.7132 13.767 10.8936 13.6675 11.09 13.6272C11.2864 13.5869 11.49 13.6076 11.675 13.6867C11.86 13.7657 12.0181 13.8996 12.1294 14.0714C12.2406 14.2432 12.3 14.4452 12.3 14.6518C12.3 14.9288 12.1933 15.1946 12.0034 15.3905C11.8136 15.5864 11.556 15.6964 11.2875 15.6964ZM15 22.6607C14.7997 22.6607 14.604 22.5994 14.4375 22.4847C14.271 22.3699 14.1412 22.2067 14.0646 22.0158C13.9879 21.825 13.9679 21.6149 14.007 21.4123C14.046 21.2096 14.1425 21.0235 14.2841 20.8774C14.4257 20.7313 14.6061 20.6318 14.8025 20.5915C14.9989 20.5512 15.2025 20.5719 15.3875 20.6509C15.5725 20.73 15.7306 20.8639 15.8419 21.0357C15.9531 21.2075 16.0125 21.4095 16.0125 21.6161C16.0125 21.8931 15.9058 22.1588 15.7159 22.3547C15.5261 22.5507 15.2685 22.6607 15 22.6607ZM15 19.1786C14.7997 19.1786 14.604 19.1173 14.4375 19.0025C14.271 18.8877 14.1412 18.7246 14.0646 18.5337C13.9879 18.3428 13.9679 18.1328 14.007 17.9301C14.046 17.7275 14.1425 17.5414 14.2841 17.3953C14.4257 17.2492 14.6061 17.1497 14.8025 17.1094C14.9989 17.0691 15.2025 17.0897 15.3875 17.1688C15.5725 17.2479 15.7306 17.3818 15.8419 17.5536C15.9531 17.7253 16.0125 17.9273 16.0125 18.1339C16.0125 18.411 15.9058 18.6767 15.7159 18.8726C15.5261 19.0685 15.2685 19.1786 15 19.1786ZM15 15.6964C14.7997 15.6964 14.604 15.6352 14.4375 15.5204C14.271 15.4056 14.1412 15.2424 14.0646 15.0516C13.9879 14.8607 13.9679 14.6506 14.007 14.448C14.046 14.2453 14.1425 14.0592 14.2841 13.9131C14.4257 13.767 14.6061 13.6675 14.8025 13.6272C14.9989 13.5869 15.2025 13.6076 15.3875 13.6867C15.5725 13.7657 15.7306 13.8996 15.8419 14.0714C15.9531 14.2432 16.0125 14.4452 16.0125 14.6518C16.0125 14.9288 15.9058 15.1946 15.7159 15.3905C15.5261 15.5864 15.2685 15.6964 15 15.6964ZM19.725 21.6161C19.725 21.8931 19.6183 22.1588 19.4284 22.3547C19.2386 22.5507 18.981 22.6607 18.7125 22.6607C18.444 22.6607 18.1864 22.5507 17.9966 22.3547C17.8067 22.1588 17.7 21.8931 17.7 21.6161V18.1339C17.7 17.8569 17.8067 17.5912 17.9966 17.3953C18.1864 17.1993 18.444 17.0893 18.7125 17.0893C18.981 17.0893 19.2386 17.1993 19.4284 17.3953C19.6183 17.5912 19.725 17.8569 19.725 18.1339V21.6161ZM18.7125 15.6964C18.5122 15.6964 18.3165 15.6352 18.15 15.5204C17.9835 15.4056 17.8537 15.2424 17.7771 15.0516C17.7004 14.8607 17.6804 14.6506 17.7195 14.448C17.7585 14.2453 17.855 14.0592 17.9966 13.9131C18.1382 13.767 18.3186 13.6675 18.515 13.6272C18.7114 13.5869 18.915 13.6076 19.1 13.6867C19.285 13.7657 19.4431 13.8996 19.5544 14.0714C19.6656 14.2432 19.725 14.4452 19.725 14.6518C19.725 14.9288 19.6183 15.1946 19.4284 15.3905C19.2386 15.5864 18.981 15.6964 18.7125 15.6964ZM19.5271 11.3137C19.4006 11.4443 19.229 11.5178 19.05 11.5179H10.95C10.771 11.5179 10.5993 11.4445 10.4727 11.3139C10.3461 11.1833 10.275 11.0061 10.275 10.8214V8.03571C10.275 7.85101 10.3461 7.67387 10.4727 7.54327C10.5993 7.41266 10.771 7.33929 10.95 7.33929H19.05C19.229 7.33929 19.4007 7.41266 19.5273 7.54327C19.6539 7.67387 19.725 7.85101 19.725 8.03571V10.8214C19.7249 11.0061 19.6537 11.1832 19.5271 11.3137Z" fill="#0061AF"/>
</svg>
