<svg width="61" height="61" viewBox="0 0 61 61" fill="none" xmlns="http://www.w3.org/2000/svg">
<path d="M3 3H6.62473C7.30746 3 7.64882 3 7.92353 3.12667C8.16562 3.2383 8.37078 3.41783 8.51454 3.64385C8.67767 3.90032 8.72595 4.24129 8.8225 4.92322L10.136 14.2L13.0551 35.8479C13.4255 38.5951 13.6107 39.9686 14.2616 41.0026C14.8352 41.9136 15.6575 42.638 16.6295 43.0886C17.7326 43.6 19.1065 43.6 21.8543 43.6H45.6033C48.219 43.6 49.5268 43.6 50.5956 43.1252C51.538 42.7065 52.3464 42.0315 52.9304 41.1758C53.5927 40.2053 53.8374 38.9091 54.3268 36.3165L58 16.8591" stroke="#2361A9" stroke-width="2" stroke-linecap="round" stroke-linejoin="round"/>
<path d="M21.9 59C24.6062 59 26.8 56.7614 26.8 54C26.8 51.2386 24.6062 49 21.9 49C19.1938 49 17 51.2386 17 54C17 56.7614 19.1938 59 21.9 59Z" stroke="#2361A9" stroke-width="2" stroke-linecap="round" stroke-linejoin="round"/>
<path d="M44.9 59C47.6062 59 49.8 56.7614 49.8 54C49.8 51.2386 47.6062 49 44.9 49C42.1938 49 40 51.2386 40 54C40 56.7614 42.1938 59 44.9 59Z" stroke="#2361A9" stroke-width="2" stroke-linecap="round" stroke-linejoin="round"/>
<path d="M29 22H21.6667C20.7332 22 20.2665 22 19.91 22.1817C19.5964 22.3414 19.3414 22.5964 19.1817 22.91C19 23.2665 19 23.7332 19 24.6667V34.3333C19 35.2668 19 35.7335 19.1817 36.09C19.3414 36.4036 19.5964 36.6586 19.91 36.8183C20.2665 37 20.7332 37 21.6667 37H29M29 37H39M29 37L29 16.3333C29 15.3999 29 14.9332 29.1817 14.5767C29.3414 14.2631 29.5964 14.0081 29.91 13.8483C30.2665 13.6667 30.7332 13.6667 31.6667 13.6667H36.3333C37.2668 13.6667 37.7335 13.6667 38.09 13.8483C38.4036 14.0081 38.6586 14.2631 38.8183 14.5767C39 14.9332 39 15.3999 39 16.3333V37M39 37H46.3333C47.2668 37 47.7335 37 48.09 36.8183C48.4036 36.6586 48.6586 36.4036 48.8183 36.09C49 35.7335 49 35.2668 49 34.3333V9.66667C49 8.73325 49 8.26654 48.8183 7.91002C48.6586 7.59641 48.4036 7.34144 48.09 7.18166C47.7335 7 47.2668 7 46.3333 7H41.6667C40.7332 7 40.2665 7 39.91 7.18166C39.5964 7.34145 39.3414 7.59641 39.1817 7.91002C39 8.26654 39 8.73325 39 9.66667V15.3333" stroke="#2361A9" stroke-width="2" stroke-linecap="round" stroke-linejoin="round"/>
</svg>
