<svg width="40" height="40" viewBox="0 0 40 40" fill="none" xmlns="http://www.w3.org/2000/svg">
<mask id="mask0_3237_595" style="mask-type:alpha" maskUnits="userSpaceOnUse" x="0" y="0" width="40" height="40">
<rect x="1" y="1" width="38" height="38" fill="#D9D9D9" stroke="#0061AF" stroke-width="2"/>
</mask>
<g mask="url(#mask0_3237_595)">
<path d="M18.5188 31.8521H11.1114C9.47499 31.8521 8.14843 30.5256 8.14844 28.8892L8.14855 11.1114C8.14856 9.475 9.47512 8.14844 11.1115 8.14844H24.4452C26.0816 8.14844 27.4081 9.475 27.4081 11.1114V17.0374M26.667 26.604V26.526M13.3341 14.0744H22.223M13.3341 18.5188H22.223M13.3341 22.9633H17.7785M31.8521 26.667C31.8521 26.667 30.6223 30.2962 26.667 30.2328C22.7116 30.1694 21.4818 26.667 21.4818 26.667C21.4818 26.667 22.6617 22.9744 26.667 22.9744C30.6722 22.9744 31.8521 26.667 31.8521 26.667Z" stroke="#0061AF" stroke-width="2" stroke-linecap="round" stroke-linejoin="round"/>
</g>
</svg>
