<svg width="61" height="61" viewBox="0 0 61 61" fill="none" xmlns="http://www.w3.org/2000/svg">
<path d="M3 3H6.62473C7.30746 3 7.64882 3 7.92353 3.12667C8.16562 3.2383 8.37078 3.41783 8.51454 3.64385C8.67767 3.90032 8.72595 4.24129 8.8225 4.92322L10.136 14.2L13.0551 35.8479C13.4255 38.5951 13.6107 39.9686 14.2616 41.0026C14.8352 41.9136 15.6575 42.638 16.6295 43.0886C17.7326 43.6 19.1065 43.6 21.8543 43.6H45.6033C48.219 43.6 49.5268 43.6 50.5956 43.1252C51.538 42.7065 52.3464 42.0315 52.9304 41.1758C53.5927 40.2053 53.8374 38.9091 54.3268 36.3165L58 16.8591" stroke="#2361A9" stroke-width="2" stroke-linecap="round" stroke-linejoin="round"/>
<path d="M21.9 59C24.6062 59 26.8 56.7614 26.8 54C26.8 51.2386 24.6062 49 21.9 49C19.1938 49 17 51.2386 17 54C17 56.7614 19.1938 59 21.9 59Z" stroke="#2361A9" stroke-width="2" stroke-linecap="round" stroke-linejoin="round"/>
<path d="M44.9 59C47.6062 59 49.8 56.7614 49.8 54C49.8 51.2386 47.6062 49 44.9 49C42.1938 49 40 51.2386 40 54C40 56.7614 42.1938 59 44.9 59Z" stroke="#2361A9" stroke-width="2" stroke-linecap="round" stroke-linejoin="round"/>
<path d="M34 6C37.7519 10.1075 39.8841 15.4381 40 21C39.8841 26.5619 37.7519 31.8925 34 36M34 6C30.2481 10.1075 28.1159 15.4381 28 21C28.1159 26.5619 30.2481 31.8925 34 36M34 6C25.7157 6 19 12.7157 19 21C19 29.2843 25.7157 36 34 36M34 6C42.2843 6 49 12.7157 49 21C49 29.2843 42.2843 36 34 36M19.75 16.5H48.25M19.75 25.5H48.25" stroke="#2361A9" stroke-width="2" stroke-linecap="round" stroke-linejoin="round"/>
</svg>
