<svg width="130" height="53" viewBox="0 0 130 53" fill="none" xmlns="http://www.w3.org/2000/svg">
<g clip-path="url(#clip0_3237_454)">
<path d="M16.8133 11.4824C7.65561 11.4824 0 15.3913 0 27.2156C0 36.5968 5.13604 42.509 17.0555 42.509C31.0585 42.509 31.9791 33.1766 31.9791 33.1766H25.1957C25.1957 33.1766 23.7421 38.2092 16.6679 38.2092C10.902 38.2092 6.735 34.3004 6.735 28.7791H32.7059V25.31C32.6575 19.8376 29.2657 11.4824 16.8133 11.4824ZM16.571 15.8799C22.0462 15.8799 25.8256 19.2513 25.8256 24.3328H6.88036C6.88036 18.9581 11.7741 15.8799 16.571 15.8799Z" fill="#E0262C"/>
<path d="M32.6571 0V36.5478C32.6571 38.6 32.5117 41.5316 32.5117 41.5316H39.0045C39.0045 41.5316 39.2467 39.4306 39.2467 37.525C39.2467 37.525 42.4446 42.5577 51.1662 42.5577C60.3239 42.5577 66.5743 36.1569 66.5743 26.9711C66.5743 18.4205 60.8569 11.5311 51.2147 11.5311C42.1539 11.5311 39.3436 16.4661 39.3436 16.4661V0H32.6571ZM49.4703 16.0752C55.6724 16.0752 59.6455 20.7169 59.6455 26.9711C59.6455 33.665 55.0909 38.0625 49.5188 38.0625C42.8807 38.0625 39.2952 32.8344 39.2952 27.02C39.2952 21.6453 42.4931 16.0752 49.4703 16.0752Z" fill="#385FAA"/>
<path d="M82.6121 11.4824C68.8029 11.4824 67.9308 19.1047 67.9308 20.3262H74.8111C74.8111 20.3262 75.1503 15.8799 82.1276 15.8799C86.6822 15.8799 90.1708 17.9809 90.1708 21.9875V23.4044H82.1276C71.4194 23.4044 65.7988 26.5804 65.7988 32.9323C65.7988 39.2353 71.0318 42.6555 78.0575 42.6555C87.6512 42.6555 90.7522 37.2809 90.7522 37.2809C90.7522 39.4307 90.8976 41.5317 90.8976 41.5317H97.0027C97.0027 41.5317 96.7604 38.9421 96.7604 37.2809V22.867C96.8573 13.4368 89.2986 11.4824 82.6121 11.4824ZM90.2193 27.7042V29.6097C90.2193 32.1016 88.7172 38.3069 79.7049 38.3069C74.8111 38.3069 72.6792 35.815 72.6792 32.9811C72.6792 27.753 79.8018 27.7042 90.2193 27.7042Z" fill="#F4B100"/>
<path d="M93.127 12.6553H100.831L111.927 35.0335L122.974 12.6553H129.951L109.795 52.5256H102.43L108.244 41.4342L93.127 12.6553Z" fill="#8CB625"/>
</g>
<defs>
<clipPath id="clip0_3237_454">
<rect width="130" height="52.5252" fill="white"/>
</clipPath>
</defs>
</svg>
