<svg width="61" height="61" viewBox="0 0 61 61" fill="none" xmlns="http://www.w3.org/2000/svg">
<g clip-path="url(#clip0_4401_76)">
<path d="M3.6298 41.0164L9.1352 37.8383C9.43341 37.6661 9.78335 37.6063 10.1218 37.6696L20.954 39.697C21.8442 39.8636 22.666 39.1782 22.662 38.2726L22.6198 28.7816C22.6186 28.5237 22.6866 28.2702 22.8167 28.0476L28.2832 18.6887C28.5678 18.2016 28.5423 17.5934 28.218 17.1318L19.0138 4.03065M50.6964 9.89718C34.8281 17.5168 43.483 27.6148 46.3687 29.0573C51.7842 31.7647 59.3155 31.9423 59.3155 31.9423C59.339 31.4644 59.3511 30.9835 59.3511 30.4998C59.3511 14.5656 46.434 1.64844 30.4998 1.64844C14.5656 1.64844 1.64844 14.5656 1.64844 30.4998C1.64844 46.434 14.5656 59.3511 30.4998 59.3511C30.9835 59.3511 31.4645 59.3392 31.9424 59.3157" stroke="#2361A9" stroke-width="2" stroke-linecap="round" stroke-linejoin="round"/>
</g>
<path d="M47.791 33.583L36.2868 47.3882C35.8362 47.9288 35.6109 48.1991 35.6075 48.4274C35.6045 48.6259 35.6929 48.8147 35.8473 48.9395C36.0249 49.083 36.3768 49.083 37.0806 49.083H46.4994L45.2077 59.4163L56.712 45.6112C57.1625 45.0705 57.3878 44.8002 57.3913 44.5719C57.3942 44.3734 57.3058 44.1846 57.1514 44.0599C56.9738 43.9163 56.6219 43.9163 55.9182 43.9163H46.4994L47.791 33.583Z" stroke="#2361A9" stroke-width="2" stroke-linecap="round" stroke-linejoin="round"/>
<defs>
<clipPath id="clip0_4401_76">
<rect width="61" height="61" fill="white"/>
</clipPath>
</defs>
</svg>
