<svg width="111" height="53" viewBox="0 0 111 53" fill="none" xmlns="http://www.w3.org/2000/svg">
<g clip-path="url(#clip0_3237_460)">
<path d="M11.8953 18.9868V4.11762C11.8953 3.56207 11.9607 3.23527 12.8757 3.23527H25.4573C27.6469 3.23527 28.856 5.09801 29.7384 8.6274L30.4573 11.4378H32.6142C33.0063 3.46403 33.3331 0 33.3331 0C33.3331 0 27.941 0.620911 24.7384 0.620911H8.62739L0 0.326795V2.64704L2.90848 3.20259C4.93461 3.59475 5.4248 4.01958 5.5882 5.88232C5.5882 5.88232 5.7516 11.3725 5.7516 20.4574C5.7516 29.5423 5.5882 34.9671 5.5882 34.9671C5.5882 36.6011 4.93461 37.222 2.90848 37.6141L0 38.1697V40.4899L8.62739 40.2285H23.0391C26.2743 40.2285 33.8233 40.4899 33.8233 40.4899C33.9867 38.4965 35.0978 29.5423 35.2612 28.5619H33.2351L31.0782 33.4638C29.3789 37.2873 26.8952 37.5815 24.1502 37.5815H15.9476C13.2025 37.5815 11.8627 36.4704 11.8627 34.1174V21.5685C11.8627 21.5685 17.843 21.5685 19.9345 21.7319C21.4704 21.8299 22.4182 22.2874 22.9083 24.4116L23.5619 27.2874H25.9149L25.7515 20.0652L26.0783 12.8104H23.7253L23.0064 16.013C22.5162 18.1045 22.1894 18.4966 20.0325 18.6927C17.6143 18.9541 11.8953 18.9214 11.8953 18.9214V18.9868Z" fill="#F27224"/>
<path d="M44.5092 5.65332C43.7249 9.05199 42.9733 11.699 40.2609 13.4637C38.6269 14.5748 36.9602 14.9343 36.3066 14.9997V17.0912H41.2086V33.9865C41.2086 38.725 44.3458 41.0126 48.5288 41.0126C51.7641 41.0126 55.13 39.64 56.2738 36.7642L55.13 35.2936C54.5745 36.2414 52.8098 37.6139 50.6203 37.6139C48.202 37.6139 46.8948 35.9472 46.8948 31.7969V16.8951L55.032 17.516L55.4568 13.7905L46.8621 14.1173V5.71868L44.5092 5.65332Z" fill="#F27224"/>
<path d="M61.8942 31.6336L59.8027 31.699C59.9008 32.9081 59.9661 34.4441 59.9661 35.882C59.9661 37.3526 59.9008 38.7578 59.8027 39.4114C59.8027 39.4114 63.9857 40.9473 68.2341 40.9473C73.953 40.9473 78.5281 38.2022 78.5281 32.8101C78.5281 23.5618 64.672 24.9343 64.672 18.7252C64.672 16.1435 66.9922 15.1632 69.5086 15.1632C71.502 15.1632 73.136 15.8821 73.4628 16.9279L74.8353 21.0455L76.8614 20.9474C77.0248 18.7579 77.1229 16.2089 77.4824 14.1828C75.7177 13.3985 72.0249 12.9736 69.7373 12.9736C64.3452 12.9736 59.9988 15.3266 59.9988 20.6206C59.9988 29.8036 73.5281 27.9409 73.5281 34.7055C73.5281 37.1238 72.0576 38.8231 68.6916 38.8231C65.6197 38.8231 64.0838 37.2218 63.4628 35.6205L61.8942 31.6336Z" fill="#F27224"/>
<path d="M95.0322 38.0059C91.8623 46.8948 87.9408 49.215 84.4441 49.215C82.9735 49.215 82.2545 48.5614 82.0258 47.5157L81.2088 43.2347L78.8885 43.3327C78.4637 45.849 78.0062 48.6595 77.418 50.9797C78.7905 52.0255 81.1108 52.581 82.9081 52.581C86.699 52.581 92.4506 52.0908 97.7446 39.5746L106.601 18.725C107.32 17.0257 107.581 16.8623 109.673 16.0453L110.816 15.6205V13.6924L105.588 13.9538L99.9995 13.6924V15.6205L101.437 16.0453C102.875 16.4701 103.529 17.0257 103.529 18.0388C103.529 18.529 103.366 19.0191 103.104 19.8035C102.287 21.8949 97.1891 34.3132 95.8165 36.9275L97.1891 36.4373C94.7708 30.457 91.1107 20.457 90.5551 18.7577C90.4571 18.4309 90.3917 18.1695 90.3917 17.8754C90.3917 16.993 90.98 16.2741 92.3198 16.0126L94.1172 15.6205V13.6924L86.6009 13.9538L80.6206 13.6924V15.6205L81.6009 15.9473C82.9735 16.3721 83.3003 16.7643 84.1173 18.6923C88.6597 29.1171 90.8166 34.836 93.725 42.287L95.0322 38.0059Z" fill="#F27224"/>
</g>
<defs>
<clipPath id="clip0_3237_460">
<rect width="110.784" height="52.5487" fill="white"/>
</clipPath>
</defs>
</svg>
