<svg width="37" height="37" viewBox="0 0 37 37" fill="none" xmlns="http://www.w3.org/2000/svg">
<path d="M2.20181 24.879L5.54115 22.9512C5.72203 22.8468 5.93429 22.8105 6.13958 22.8489L12.71 24.0786C13.2499 24.1797 13.7484 23.764 13.7459 23.2147L13.7203 17.4578C13.7196 17.3014 13.7609 17.1476 13.8398 17.0126L17.1555 11.3359C17.3281 11.0404 17.3126 10.6715 17.116 10.3916L11.5331 2.44495M30.7504 6.00334C21.1254 10.6251 26.3751 16.7501 28.1254 17.6251C31.4102 19.2672 35.9784 19.375 35.9784 19.375C35.9927 19.0851 36 18.7934 36 18.5C36 8.83502 28.165 1 18.5 1C8.83502 1 1 8.83502 1 18.5C1 28.165 8.83502 36 18.5 36C18.7934 36 19.0851 35.9928 19.375 35.9785" stroke="#2361A9" stroke-width="2" stroke-linecap="round" stroke-linejoin="round"/>
</svg>
