<svg width="37" height="37" viewBox="0 0 37 37" fill="none" xmlns="http://www.w3.org/2000/svg">
<g clip-path="url(#clip0_3240_100)">
<path d="M2.20181 24.879L5.54115 22.9512C5.72203 22.8468 5.93429 22.8105 6.13958 22.8489L12.71 24.0786C13.2499 24.1797 13.7484 23.764 13.7459 23.2147L13.7203 17.4578C13.7196 17.3014 13.7609 17.1476 13.8398 17.0126L17.1555 11.3359C17.3281 11.0404 17.3126 10.6715 17.116 10.3916L11.5331 2.44495M30.7504 6.00334C21.1254 10.6251 26.3751 16.7501 28.1254 17.6251C31.4102 19.2672 35.9784 19.375 35.9784 19.375C35.9927 19.0851 36 18.7934 36 18.5C36 8.83502 28.165 1 18.5 1C8.83502 1 1 8.83502 1 18.5C1 28.165 8.83502 36 18.5 36C18.7934 36 19.0851 35.9928 19.375 35.9785" stroke="#2361A9" stroke-width="2" stroke-linecap="round" stroke-linejoin="round"/>
<path d="M34.6389 25.6461L28.5 29M28.5 29L22.3611 25.6461M28.5 29L28.5 35.7471M35 31.8825V26.1175C35 25.8742 35 25.7525 34.9635 25.644C34.9313 25.548 34.8786 25.4598 34.8089 25.3855C34.7301 25.3014 34.622 25.2423 34.4056 25.1242L29.0612 22.2043C28.8564 22.0924 28.754 22.0365 28.6455 22.0146C28.5495 21.9951 28.4505 21.9951 28.3545 22.0146C28.2461 22.0365 28.1436 22.0924 27.9388 22.2043L22.5944 25.1242C22.378 25.2423 22.2699 25.3014 22.1911 25.3855C22.1214 25.4598 22.0687 25.548 22.0365 25.644C22 25.7525 22 25.8742 22 26.1175V31.8825C22 32.1258 22 32.2475 22.0365 32.356C22.0687 32.452 22.1214 32.5402 22.1911 32.6145C22.2699 32.6986 22.378 32.7577 22.5944 32.8758L27.9388 35.7957C28.1436 35.9076 28.2461 35.9635 28.3545 35.9854C28.4505 36.0049 28.5495 36.0049 28.6455 35.9854C28.754 35.9635 28.8564 35.9076 29.0612 35.7957L34.4056 32.8758C34.622 32.7577 34.7301 32.6986 34.8089 32.6145C34.8786 32.5402 34.9313 32.452 34.9635 32.356C35 32.2475 35 32.1258 35 31.8825Z" stroke="#2361A9" stroke-width="2" stroke-linecap="round" stroke-linejoin="round"/>
</g>
<defs>
<clipPath id="clip0_3240_100">
<rect width="37" height="37" fill="white"/>
</clipPath>
</defs>
</svg>
