<svg width="37" height="37" viewBox="0 0 37 37" fill="none" xmlns="http://www.w3.org/2000/svg">
<g clip-path="url(#clip0_3240_124)">
<path d="M32.6111 24.9066L26 28.5M26 28.5L19.3889 24.9066M26 28.5L26 35.7291M33 31.5884V25.4116C33 25.1509 33 25.0205 32.9607 24.9042C32.926 24.8014 32.8692 24.707 32.7942 24.6273C32.7094 24.5373 32.5929 24.4739 32.3599 24.3473L26.6044 21.2189C26.3838 21.0991 26.2735 21.0391 26.1567 21.0156C26.0533 20.9948 25.9467 20.9948 25.8433 21.0156C25.7265 21.0391 25.6162 21.0991 25.3956 21.2189L19.6401 24.3473C19.4071 24.4739 19.2906 24.5373 19.2058 24.6273C19.1308 24.707 19.074 24.8014 19.0393 24.9042C19 25.0205 19 25.1509 19 25.4116V31.5884C19 31.8491 19 31.9795 19.0393 32.0958C19.074 32.1986 19.1308 32.293 19.2058 32.3727C19.2906 32.4627 19.4071 32.5261 19.6401 32.6527L25.3956 35.7811C25.6162 35.9009 25.7265 35.9609 25.8433 35.9844C25.9467 36.0052 26.0533 36.0052 26.1567 35.9844C26.2735 35.9609 26.3838 35.9009 26.6044 35.7811L32.3599 32.6527C32.5929 32.5261 32.7094 32.4627 32.7942 32.3727C32.8692 32.293 32.926 32.1986 32.9607 32.0958C33 31.9795 33 31.8491 33 31.5884Z" stroke="#2361A9" stroke-width="2" stroke-linecap="round" stroke-linejoin="round"/>
<path d="M14.7222 27.8648L9.99998 30.5M9.99998 30.5L5.27776 27.8648M9.99998 30.5L10 35.8013M15 32.7648V28.2352C15 28.044 15 27.9484 14.972 27.8631C14.9471 27.7877 14.9066 27.7184 14.853 27.66C14.7924 27.594 14.7092 27.5476 14.5428 27.4547L10.4317 25.1606C10.2741 25.0726 10.1953 25.0287 10.1119 25.0114C10.0381 24.9962 9.96192 24.9962 9.88808 25.0114C9.80466 25.0287 9.72588 25.0726 9.56832 25.1606L5.45721 27.4547C5.2908 27.5476 5.2076 27.594 5.14702 27.66C5.09342 27.7184 5.05286 27.7877 5.02805 27.8631C5 27.9484 5 28.044 5 28.2352V32.7648C5 32.956 5 33.0516 5.02805 33.1369C5.05286 33.2123 5.09342 33.2816 5.14702 33.34C5.2076 33.406 5.2908 33.4524 5.45721 33.5453L9.56832 35.8394C9.72588 35.9274 9.80466 35.9713 9.88808 35.9886C9.96192 36.0038 10.0381 36.0038 10.1119 35.9886C10.1953 35.9713 10.2741 35.9274 10.4317 35.8394L14.5428 33.5453C14.7092 33.4524 14.7924 33.406 14.853 33.34C14.9066 33.2816 14.9471 33.2123 14.972 33.1369C15 33.0516 15 32.956 15 32.7648Z" stroke="#2361A9" stroke-width="2" stroke-linecap="round" stroke-linejoin="round"/>
<path d="M7.03017 20.5386L7.81299 18.5016C7.85539 18.3913 7.93586 18.2998 8.03985 18.2436L11.3683 16.4454C11.6418 16.2976 11.7131 15.9373 11.5165 15.6965L9.45564 13.1728C9.39965 13.1043 9.36306 13.0219 9.34968 12.9344L8.78743 9.25648C8.75816 9.06507 8.62002 8.90826 8.43381 8.85512L3.14848 7.34662M12.87 2.07037C10.2809 7.53042 14.7711 8.3561 15.8527 8.11792C17.8825 7.6709 19.9306 6.09195 19.9306 6.09195C19.8337 5.95934 19.7331 5.82839 19.6286 5.6993C16.1877 1.44719 9.95124 0.789613 5.69913 4.23056C1.44702 7.6715 0.789436 13.908 4.23038 18.1601C7.67132 22.4122 13.9078 23.0698 18.1599 19.6288C18.289 19.5243 18.4147 19.4173 18.5372 19.3078" stroke="#2361A9" stroke-width="2" stroke-linecap="round" stroke-linejoin="round"/>
<path d="M36 6L28.1314 13.8686C27.7354 14.2646 27.5373 14.4627 27.309 14.5368C27.1082 14.6021 26.8918 14.6021 26.691 14.5368C26.4627 14.4627 26.2646 14.2646 25.8686 13.8686L23.1314 11.1314C22.7354 10.7354 22.5373 10.5373 22.309 10.4632C22.1082 10.3979 21.8918 10.3979 21.691 10.4632C21.4627 10.5373 21.2646 10.7354 20.8686 11.1314L16 16M36 6H29M36 6V13" stroke="#2361A9" stroke-width="2" stroke-linecap="round" stroke-linejoin="round"/>
</g>
<defs>
<clipPath id="clip0_3240_124">
<rect width="37" height="37" fill="white"/>
</clipPath>
</defs>
</svg>
