<svg width="30" height="30" viewBox="0 0 30 30" fill="none" xmlns="http://www.w3.org/2000/svg">
<path d="M15 6C10.0375 6 6 10.0375 6 15C6 19.9625 10.0375 24 15 24C19.9625 24 24 19.9625 24 15C24 10.0375 19.9625 6 15 6ZM15.0865 10.1538C15.7027 10.1538 16.305 10.3366 16.8174 10.6789C17.3297 11.0212 17.729 11.5078 17.9648 12.077C18.2006 12.6463 18.2623 13.2727 18.1421 13.877C18.0219 14.4813 17.7251 15.0364 17.2894 15.4721C16.8538 15.9078 16.2986 16.2045 15.6943 16.3248C15.09 16.445 14.4636 16.3833 13.8943 16.1475C13.3251 15.9117 12.8385 15.5124 12.4962 15C12.1539 14.4877 11.9712 13.8854 11.9712 13.2692C11.9712 12.443 12.2994 11.6506 12.8836 11.0663C13.4679 10.4821 14.2603 10.1538 15.0865 10.1538ZM15 22.6154C13.9496 22.6158 12.9106 22.3984 11.9485 21.9769C10.9864 21.5553 10.1222 20.9388 9.41048 20.1663C9.79298 18.1855 13.2286 17.7692 15 17.7692C16.7714 17.7692 20.207 18.1855 20.5895 20.1659C19.8779 20.9386 19.0137 21.5552 18.0516 21.9768C17.0895 22.3984 16.0504 22.6158 15 22.6154Z" fill="#0061AF"/>
</svg>
