<svg width="170" height="48" viewBox="0 0 170 48" fill="none" xmlns="http://www.w3.org/2000/svg">
<g clip-path="url(#clip0_3237_466)">
<path d="M36.5292 9.11059C36.4911 8.88471 36.3007 8.73412 36.1102 8.73412C35.9198 8.73412 32.3011 8.47059 32.3011 8.47059C32.3011 8.47059 29.7871 5.98588 29.4824 5.72235C29.2158 5.45882 28.6444 5.53412 28.454 5.60941C28.4159 5.60941 27.8826 5.76 27.0446 6.02353C26.2066 3.61412 24.721 1.39294 22.0928 1.39294C22.0166 1.39294 21.9404 1.39294 21.8642 1.39294C21.1024 0.414118 20.1882 0 19.3883 0C13.2557 0 10.3227 7.56706 9.40847 11.4071C7.04683 12.1224 5.33274 12.6494 5.14228 12.7247C3.8091 13.1388 3.77101 13.1765 3.61864 14.4188C3.46628 15.3224 0 41.8635 0 41.8635L27.0446 46.8706L41.7096 43.7459C41.7096 43.7459 36.5673 9.37412 36.5292 9.11059ZM25.521 6.47529C24.8353 6.70118 24.0735 6.92706 23.2355 7.19059C23.2355 7.04 23.2355 6.88941 23.2355 6.70118C23.2355 5.19529 23.0069 3.99059 22.7022 3.04941C24.0735 3.2 24.9496 4.70588 25.521 6.47529ZM21.0262 3.31294C21.4071 4.25412 21.6357 5.57176 21.6357 7.37882C21.6357 7.45412 21.6357 7.56706 21.6357 7.64235C20.1501 8.09412 18.5122 8.58353 16.9124 9.07294C17.8266 5.64706 19.5407 3.95294 21.0262 3.31294ZM19.1978 1.61882C19.4645 1.61882 19.7311 1.69412 19.9978 1.88235C18.0551 2.78588 15.922 5.08235 15.0459 9.67529C13.7508 10.0894 12.4938 10.4659 11.313 10.8047C12.3415 7.30353 14.8174 1.61882 19.1978 1.61882Z" fill="#95BF47"/>
<path d="M36.1106 8.73418C35.9201 8.73418 32.3015 8.47065 32.3015 8.47065C32.3015 8.47065 29.7875 5.98594 29.4827 5.72242C29.3685 5.60947 29.2542 5.57183 29.1018 5.53418L27.0449 46.8707L41.7099 43.7459C41.7099 43.7459 36.5677 9.37418 36.5296 9.1483C36.4915 8.88477 36.2629 8.77183 36.1106 8.73418Z" fill="#5E8E3E"/>
<path d="M22.0548 16.7534L20.2645 22.0616C20.2645 22.0616 18.6647 21.2334 16.7602 21.2334C13.9033 21.2334 13.7891 23.0028 13.7891 23.4546C13.7891 25.864 20.1883 26.8051 20.1883 32.4899C20.1883 36.9699 17.3315 39.831 13.4462 39.831C8.79914 39.831 6.4375 36.9699 6.4375 36.9699L7.6945 32.904C7.6945 32.904 10.1323 34.9746 12.1892 34.9746C13.5224 34.9746 14.0938 33.9204 14.0938 33.1675C14.0938 30.0051 8.83723 29.8546 8.83723 24.6593C8.83723 20.2922 11.9988 16.0381 18.4362 16.0381C20.8359 16.0381 22.0548 16.7534 22.0548 16.7534Z" fill="white"/>
<path d="M58.7738 26.6922C57.3264 25.9016 56.5646 25.2616 56.5646 24.3581C56.5646 23.191 57.593 22.4757 59.2309 22.4757C61.1355 22.4757 62.8115 23.2663 62.8115 23.2663L64.1447 19.2381C64.1447 19.2381 62.9258 18.2969 59.3071 18.2969C54.2791 18.2969 50.7747 21.1581 50.7747 25.1486C50.7747 27.4075 52.4127 29.1392 54.5838 30.3816C56.336 31.3604 56.9455 32.0757 56.9455 33.0922C56.9455 34.1839 56.0694 35.0498 54.4315 35.0498C51.9936 35.0498 49.7082 33.8075 49.7082 33.8075L48.2988 37.8357C48.2988 37.8357 50.4319 39.2286 53.9744 39.2286C59.1548 39.2286 62.8496 36.7063 62.8496 32.1886C62.9258 29.7039 61.0212 27.9722 58.7738 26.6922Z" fill="black"/>
<path d="M79.42 18.2216C76.8679 18.2216 74.8872 19.4263 73.3254 21.2333L73.2493 21.1957L75.4585 9.75098H69.7068L64.1074 38.8522H69.8592L71.7637 28.9133C72.5255 25.1486 74.4682 22.8522 76.2965 22.8522C77.5916 22.8522 78.0868 23.718 78.0868 24.9604C78.0868 25.751 78.0106 26.6922 77.8202 27.4827L75.649 38.8898H81.4007L83.6481 27.1439C83.9147 25.9016 84.0671 24.4333 84.0671 23.4169C84.1052 20.1416 82.3911 18.2216 79.42 18.2216Z" fill="black"/>
<path d="M97.1314 18.2207C90.1989 18.2207 85.5898 24.3948 85.5898 31.2842C85.5898 35.6889 88.3324 39.2654 93.5128 39.2654C100.331 39.2654 104.902 33.2419 104.902 26.2019C104.94 22.0983 102.54 18.2207 97.1314 18.2207ZM94.3127 34.8607C92.3319 34.8607 91.532 33.2042 91.532 31.1336C91.532 27.8583 93.2461 22.5501 96.3696 22.5501C98.4265 22.5501 99.0741 24.2819 99.0741 25.976C99.0741 29.5148 97.36 34.8607 94.3127 34.8607Z" fill="black"/>
<path d="M119.683 18.2207C115.798 18.2207 113.588 21.6089 113.588 21.6089H113.512L113.855 18.5595H108.751C108.484 20.6301 108.027 23.7548 107.57 26.1266L103.57 46.9831H109.322L110.922 38.5501H111.036C111.036 38.5501 112.217 39.3031 114.426 39.3031C121.206 39.3031 125.625 32.4513 125.625 25.5242C125.625 21.6466 123.911 18.2207 119.683 18.2207ZM114.198 34.9736C112.712 34.9736 111.836 34.1454 111.836 34.1454L112.788 28.8372C113.474 25.2983 115.34 22.9266 117.321 22.9266C119.073 22.9266 119.607 24.5454 119.607 26.0513C119.607 29.7031 117.397 34.9736 114.198 34.9736Z" fill="black"/>
<path d="M133.851 10.0137C132.023 10.0137 130.537 11.4443 130.537 13.3266C130.537 15.0207 131.604 16.1878 133.242 16.1878H133.318C135.108 16.1878 136.67 14.9831 136.708 12.8748C136.746 11.2184 135.603 10.0137 133.851 10.0137Z" fill="black"/>
<path d="M125.777 38.8517H131.567L135.491 18.6729H129.663L125.777 38.8517Z" fill="black"/>
<path d="M150.117 18.5981H146.117L146.308 17.6569C146.651 15.6993 147.793 13.9675 149.736 13.9675C150.765 13.9675 151.564 14.2687 151.564 14.2687L152.707 9.82633C152.707 9.82633 151.717 9.33691 149.584 9.33691C147.527 9.33691 145.508 9.90162 143.946 11.2193C141.966 12.8757 141.051 15.2475 140.594 17.6569L140.442 18.5981H137.776L136.938 22.8899H139.604L136.557 38.8146H142.308L145.356 22.8899H149.317L150.117 18.5981Z" fill="black"/>
<path d="M163.983 18.6729C163.983 18.6729 160.364 27.6329 158.764 32.527H158.688C158.574 30.9458 157.279 18.6729 157.279 18.6729H151.222L154.688 37.1952C154.765 37.6093 154.726 37.8729 154.574 38.1364C153.888 39.4164 152.784 40.6587 151.451 41.5623C150.384 42.3529 149.165 42.8423 148.213 43.1811L149.813 47.9999C150.994 47.7364 153.393 46.7952 155.45 44.9129C158.078 42.4658 160.516 38.7387 162.992 33.6187L170.039 18.6729H163.983Z" fill="black"/>
</g>
<defs>
<clipPath id="clip0_3237_466">
<rect width="170" height="48" fill="white"/>
</clipPath>
</defs>
</svg>
