<svg width="100" height="100" viewBox="0 0 100 100" fill="none" xmlns="http://www.w3.org/2000/svg">
<path opacity="0.1294" d="M49.5536 93.1782C70.0177 93.1782 86.6071 83.6353 86.6071 71.8635C86.6071 60.0917 70.0177 50.5488 49.5536 50.5488C29.0894 50.5488 12.5 60.0917 12.5 71.8635C12.5 83.6353 29.0894 93.1782 49.5536 93.1782Z" fill="#0061AF"/>
<path d="M83.2467 21.9528L80.6499 20.1731C80.6499 20.1731 80.2129 19.8057 79.5415 20.1414C78.8764 20.4834 68.0585 26.7791 68.0585 26.7791C68.0585 26.7791 66 27.6659 66 29.7877C66 31.9094 66.0507 59.8285 66.0507 59.8285C66.0507 59.8285 66.0507 60.5695 66.6334 60.9115C67.1844 61.2282 69.3062 62.0453 69.8002 62.1339C70.1866 62.2036 70.6299 61.8426 70.6299 61.8426C70.6299 61.8426 69.7496 62.3746 69.1669 61.7982C68.8628 61.4942 68.9452 60.7215 68.9452 60.2528L68.9515 31.1367C68.9515 31.1367 68.9832 29.243 70.6679 28.4576C72.3527 27.6722 82.341 21.9338 82.341 21.9338C82.341 21.9338 82.797 21.6615 83.2467 21.9528Z" fill="white" stroke="#0061B1" stroke-width="1.5" stroke-miterlimit="10"/>
<path d="M68.9512 61.1903V31.2635C68.9512 30.1234 69.5656 29.0784 70.56 28.521L82.3407 21.9339C82.936 21.5983 83.6708 22.0353 83.6644 22.713L83.5251 52.9755C83.5187 53.7862 83.0881 54.5336 82.3913 54.9389L70.3636 62.001C69.7366 62.3684 68.9512 61.9187 68.9512 61.1903Z" fill="white" stroke="#0061B1" stroke-width="1.5" stroke-miterlimit="10"/>
<path d="M79.0652 31.3659C79.0652 31.0513 79.5719 30.8601 79.7256 30.8428L79.773 30.2922C79.2593 30.4053 78.4628 31.0022 78.4639 31.7819C78.4534 32.5578 79.4351 31.8861 79.4351 32.2525C79.4351 32.639 78.6659 32.8851 78.4987 32.8641L78.4113 33.4382C78.9827 33.3996 80.0679 32.7086 80.039 31.8498C80.0289 31.0068 79.0652 31.7136 79.0652 31.3659ZM77.7586 32.3924C77.7586 31.7094 76.9607 32.1608 76.9665 32.8496L77.7586 32.3924ZM76.9619 33.3805C77.0038 33.9612 77.8195 33.3854 78.1726 33.0526L78.2603 33.5254C77.4348 34.3668 76.3331 34.7651 76.3331 33.5253C76.3331 31.8725 78.3789 30.512 78.3789 32.2582C78.3789 32.3901 78.366 32.5144 78.3572 32.575L76.9619 33.3805ZM79.8302 30.7824L80.1453 30.6005V31.6395C80.1453 32.1855 80.2643 32.5241 80.7871 32.2223C80.9762 32.1132 81.1321 31.9683 81.2202 31.8766V31.2929C80.9079 31.5408 80.7559 31.6513 80.7559 31.1705V29.0312L80.1453 29.3839V30.0772L79.8778 30.2316L79.8302 30.7824ZM80.8599 30.1879L81.2198 29.9801L81.345 29.6439L81.2214 29.4559L80.8599 29.6646V30.1879ZM72.8727 36.7404L73.4052 33.9688L73.5479 36.4026L74.1457 36.0575L73.9634 32.9536L73.0303 33.4923L72.5728 35.9131L72.1154 34.0204L71.1824 34.5591L71 37.8738L71.5979 37.5286L71.7406 34.9301L72.2731 37.0869L72.8727 36.7404Z" fill="#0061AF"/>
<path d="M75.6071 33.6345C75.6071 32.9515 74.8092 33.4031 74.815 34.0919L75.6071 33.6345ZM74.8104 34.6228C74.8523 35.2034 75.668 34.6276 76.0211 34.2948L76.1088 34.7676C75.2831 35.609 74.1816 36.0072 74.1816 34.7674C74.1816 33.1147 76.2273 31.7543 76.2273 33.5005C76.2273 33.6324 76.2142 33.7567 76.2056 33.8173L74.8104 34.6228Z" fill="#0061AF"/>
<path d="M81.5451 28.5762L81.9994 29.2665L81.5451 30.4864L81.0918 30.748L81.5461 29.5283L81.0918 28.8379L81.5451 28.5762Z" fill="#0061AF"/>
<path d="M72.7286 38.2363V40.4264L72.2924 40.6782V38.9011L71.4362 39.3954V41.1725L71 41.4244V39.2343L72.7286 38.2363Z" fill="#0061AF"/>
<path d="M73.0664 39.1353C73.0664 38.4846 73.5054 37.7493 74.1041 37.4036C74.7001 37.0595 75.1417 37.2832 75.1417 37.9372C75.1417 38.5911 74.7001 39.3246 74.1041 39.6687C73.5054 40.0144 73.0664 39.786 73.0664 39.1353ZM74.6976 38.1936C74.6976 37.7776 74.4428 37.6398 74.1042 37.8353C73.7655 38.0309 73.5109 38.4625 73.5109 38.8787C73.5109 39.2948 73.7657 39.4325 74.1042 39.237C74.4428 39.0414 74.6976 38.6096 74.6976 38.1936Z" fill="#0061AF"/>
<path d="M77.9839 35.2021V37.3921L75.4805 38.8375V36.6474L75.9167 36.3956V38.1727L76.5155 37.827V36.0499L76.9517 35.798V37.5751L77.5477 37.231V35.4539L77.9839 35.2021Z" fill="#0061AF"/>
<path d="M79.9063 34.5057L79.2993 34.8561V36.6332L78.8659 36.8835V35.1064L78.2617 35.4552V35.0423L79.9063 34.0928V34.5057Z" fill="#0061AF"/>
<path d="M81.3713 34.9669L80.4908 35.4753L80.3228 36.0416L79.873 36.3013L80.7184 33.6233L81.1519 33.373L82 35.0732L81.5393 35.3392L81.3713 34.9669ZM81.2331 34.6619L80.9324 33.9971L80.6317 35.0092L81.2331 34.6619Z" fill="#0061AF"/>
<path d="M72.1309 27.6408L72.853 28.1285C73.1633 28.3375 73.5623 28.3565 73.8854 28.1728L78.6546 25.4747C79.022 25.2656 79.2817 24.9046 79.3577 24.4866L79.535 23.5049L72.1309 27.6408Z" fill="#0061B1" stroke="#0061B1" stroke-width="0.5" stroke-miterlimit="10"/>
<path d="M74.2027 27.305L74.1583 27.2227C74.1203 27.153 74.1457 27.0707 74.2153 27.0326L78.0219 24.9552C78.0916 24.9172 78.1739 24.9425 78.2119 25.0122L78.2562 25.0945C78.2942 25.1642 78.2689 25.2465 78.1992 25.2845L74.3927 27.362C74.323 27.4 74.2407 27.3747 74.2027 27.305Z" fill="white"/>
<path d="M66.9121 34.9555V32.2953C66.9121 32.0356 67.1275 31.8203 67.3872 31.8203C67.6469 31.8203 67.8622 32.0356 67.8622 32.2953V34.9555C67.8622 35.2152 67.6469 35.4305 67.3872 35.4305C67.1212 35.4305 66.9121 35.2152 66.9121 34.9555Z" fill="#0061B1"/>
<path d="M66.9121 39.0415V36.3813C66.9121 36.1217 67.1275 35.9062 67.3872 35.9062C67.6469 35.9062 67.8622 36.1217 67.8622 36.3813V39.0415C67.8622 39.3012 67.6469 39.5165 67.3872 39.5165C67.1212 39.5165 66.9121 39.3012 66.9121 39.0415Z" fill="#0061B1"/>
<path d="M9.65824 72.7565L8.28534 71.8609C7.85874 71.5753 7.59274 71.109 7.58344 70.5924L7.00124 44.6305C6.96024 42.6891 7.94074 40.8714 9.58994 39.8398L47.9743 15.9137C48.7744 15.4113 49.7727 15.344 50.628 15.7318L51.6189 16.1818" stroke="#0C63AD" stroke-width="1.5" stroke-miterlimit="10" stroke-linejoin="round"/>
<path d="M11.1328 74.657L11.1934 76.4393C11.2234 77.3221 11.7175 78.1225 12.4907 78.5464L33.2644 89.9307C35.652 91.242 38.559 91.1515 40.8612 89.7058L78.1526 66.2505C78.9527 65.748 79.3971 64.8408 79.3068 63.9016L79.1331 61.9814" fill="#0C63AD"/>
<path d="M11.1328 74.657L11.1934 76.4393C11.2234 77.3221 11.7175 78.1225 12.4907 78.5464L33.2644 89.9307C35.652 91.242 38.559 91.1515 40.8612 89.7058L78.1526 66.2505C78.9527 65.748 79.3971 64.8408 79.3068 63.9016L79.1331 61.9814" stroke="#0C63AD" stroke-width="1.5" stroke-miterlimit="10"/>
<path d="M8.83451 71.358L8.11541 45.0506C8.06351 43.2763 8.96551 41.6031 10.4679 40.6682L49.8417 16.1665C50.9359 15.4873 52.3628 16.256 52.39 17.5474L52.9493 44.0604C52.9843 45.8269 52.0901 47.4832 50.5877 48.4181L11.3743 72.7309C10.28 73.4101 8.87001 72.6492 8.83451 71.358Z" fill="#FDFDFD" stroke="#0C63AD" stroke-width="1.5" stroke-miterlimit="10"/>
<path d="M34.3012 88.3109L11.5659 75.3924C11.0132 75.0776 11.0032 74.2942 11.5422 73.959L51.3189 49.2936C53.0828 48.1997 55.2898 48.1247 57.1239 49.0963L77.8163 60.0497C79.5145 60.9509 79.6044 63.3492 77.9798 64.3716L40.3 88.1737C38.4798 89.3278 36.1719 89.3813 34.3012 88.3109Z" fill="#FDFDFD" stroke="#0C63AD" stroke-width="1.5" stroke-miterlimit="10"/>
<path d="M47.0332 54.4758L49.2438 53.0332L51.721 54.2831L49.3961 55.7963L47.0332 54.4758Z" fill="#0C63AD" stroke="#0C63AD" stroke-miterlimit="10" stroke-linejoin="round"/>
<path d="M50.748 52.1399L52.9586 50.6973L55.4358 51.9471L53.1108 53.4603L50.748 52.1399Z" fill="#0C63AD" stroke="#0C63AD" stroke-miterlimit="10" stroke-linejoin="round"/>
<path d="M43.2773 56.8127L45.4879 55.3701L47.9651 56.62L45.6402 58.1332L43.2773 56.8127Z" fill="#0C63AD" stroke="#0C63AD" stroke-miterlimit="10" stroke-linejoin="round"/>
<path d="M39.5273 59.2755L41.7379 57.833L44.2151 59.0829L41.8902 60.596L39.5273 59.2755Z" fill="#0C63AD" stroke="#0C63AD" stroke-miterlimit="10" stroke-linejoin="round"/>
<path d="M35.6484 61.7004L37.859 60.2578L40.3362 61.5077L38.0113 63.0209L35.6484 61.7004Z" fill="#0C63AD" stroke="#0C63AD" stroke-miterlimit="10" stroke-linejoin="round"/>
<path d="M31.8105 64.0822L34.0211 62.6396L36.4983 63.8895L34.1733 65.4027L31.8105 64.0822Z" fill="#0C63AD" stroke="#0C63AD" stroke-miterlimit="10" stroke-linejoin="round"/>
<path d="M28.1348 66.3332L30.3454 64.8906L32.8226 66.1405L30.4977 67.6537L28.1348 66.3332Z" fill="#0C63AD" stroke="#0C63AD" stroke-miterlimit="10" stroke-linejoin="round"/>
<path d="M49.4062 57.5141L51.6082 56.0635L54.0858 57.3217L51.7609 58.8349L49.4062 57.5141Z" fill="#0C63AD" stroke="#0C63AD" stroke-miterlimit="10" stroke-linejoin="round"/>
<path d="M54.291 58.9902L56.4933 57.5479L58.9708 58.8062L56.6456 60.311L54.291 58.9902Z" fill="#0C63AD" stroke="#0C63AD" stroke-miterlimit="10" stroke-linejoin="round"/>
<path d="M56.7383 62.0751L58.9406 60.6328L61.4181 61.8911L59.0929 63.3959L56.7383 62.0751Z" fill="#0C63AD" stroke="#0C63AD" stroke-miterlimit="10" stroke-linejoin="round"/>
<path d="M58 65.7935L62.0009 63.2979L64.4901 64.6558L60.3629 67.1141L58 65.7935Z" fill="#0C63AD" stroke="#0C63AD" stroke-miterlimit="10" stroke-linejoin="round"/>
<path d="M63.1602 62.5578L68.683 59.21L71.1993 60.3835L65.5231 63.8783L63.1602 62.5578Z" fill="#0C63AD" stroke="#0C63AD" stroke-miterlimit="10" stroke-linejoin="round"/>
<path d="M53.2617 64.2782L55.464 62.8359L57.9415 64.0941L55.6163 65.599L53.2617 64.2782Z" fill="#0C63AD" stroke="#0C63AD" stroke-miterlimit="10" stroke-linejoin="round"/>
<path d="M49.7109 66.5253L51.9131 65.083L54.3906 66.3412L52.0654 67.8461L49.7109 66.5253Z" fill="#0C63AD" stroke="#0C63AD" stroke-miterlimit="10" stroke-linejoin="round"/>
<path d="M45.9922 68.7279L48.1942 67.2773L50.6717 68.5355L48.3468 70.0487L45.9922 68.7279Z" fill="#0C63AD" stroke="#0C63AD" stroke-miterlimit="10" stroke-linejoin="round"/>
<path d="M42.4434 71.016L44.6454 69.5654L47.1229 70.8236L44.798 72.3368L42.4434 71.016Z" fill="#0C63AD" stroke="#0C63AD" stroke-miterlimit="10" stroke-linejoin="round"/>
<path d="M38.8926 73.2631L41.0946 71.8125L43.5721 73.0707L41.2472 74.5839L38.8926 73.2631Z" fill="#0C63AD" stroke="#0C63AD" stroke-miterlimit="10" stroke-linejoin="round"/>
<path d="M35.3887 75.4247L37.591 73.9824L40.0682 75.2323L37.7433 76.7455L35.3887 75.4247Z" fill="#0C63AD" stroke="#0C63AD" stroke-miterlimit="10" stroke-linejoin="round"/>
<path d="M38.1055 78.3426L42.1555 75.8203L44.7956 76.9562L40.4684 79.6631L38.1055 78.3426Z" fill="#0C63AD" stroke="#0C63AD" stroke-miterlimit="10" stroke-linejoin="round"/>
<path d="M43.4727 74.7916L56.6419 66.5479L59.1403 67.9305L45.9134 76.1928L43.4727 74.7916Z" fill="#0C63AD" stroke="#0C63AD" stroke-miterlimit="10" stroke-linejoin="round"/>
<path d="M48.4609 76.3651L59.0318 69.6855L62.9948 71.7187L52.4606 78.4971L48.4609 76.3651Z" fill="#0C63AD" stroke="#0C63AD" stroke-miterlimit="10" stroke-linejoin="round"/>
<path d="M50.8066 61.1848L53.0172 59.7422L55.4944 60.9921L53.1694 62.5053L50.8066 61.1848Z" fill="#0C63AD" stroke="#0C63AD" stroke-miterlimit="10" stroke-linejoin="round"/>
<path d="M47.3379 63.3879L49.5485 61.9453L52.0257 63.1952L49.7008 64.7083L47.3379 63.3879Z" fill="#0C63AD" stroke="#0C63AD" stroke-miterlimit="10" stroke-linejoin="round"/>
<path d="M43.7422 65.5857L45.9525 64.1348L48.43 65.393L46.1051 66.9062L43.7422 65.5857Z" fill="#0C63AD" stroke="#0C63AD" stroke-miterlimit="10" stroke-linejoin="round"/>
<path d="M40.1953 67.9577L42.4056 66.5068L44.8831 67.765L42.5582 69.2782L40.1953 67.9577Z" fill="#0C63AD" stroke="#0C63AD" stroke-miterlimit="10" stroke-linejoin="round"/>
<path d="M36.5371 70.2084L38.7391 68.7578L41.2166 70.016L38.9 71.5289L36.5371 70.2084Z" fill="#0C63AD" stroke="#0C63AD" stroke-miterlimit="10" stroke-linejoin="round"/>
<path d="M32.9004 72.3749L35.1027 70.9326L37.5802 72.1908L35.2633 73.6954L32.9004 72.3749Z" fill="#0C63AD" stroke="#0C63AD" stroke-miterlimit="10" stroke-linejoin="round"/>
<path d="M29.5078 74.5995L31.71 73.1572L34.1959 74.4151L31.8707 75.92L29.5078 74.5995Z" fill="#0C63AD" stroke="#0C63AD" stroke-miterlimit="10" stroke-linejoin="round"/>
<path d="M23.1484 78.6092L27.9537 75.4941L30.4395 76.7521L25.6709 79.9659L23.1484 78.6092Z" fill="#0C63AD" stroke="#0C63AD" stroke-miterlimit="10" stroke-linejoin="round"/>
<path d="M27.2324 80.7549L33.8678 76.2852L36.6519 77.7333L29.7633 82.1114L27.2324 80.7549Z" fill="#0C63AD" stroke="#0C63AD" stroke-miterlimit="10" stroke-linejoin="round"/>
<path d="M30.6484 82.8986L36.7191 78.9902L39.4952 80.4467L33.4474 84.5378L30.6484 82.8986Z" fill="#0C63AD" stroke="#0C63AD" stroke-miterlimit="10" stroke-linejoin="round"/>
<path d="M52.9551 55.2249L57.0775 52.625L59.5147 53.9263L55.3096 56.5456L52.9551 55.2249Z" fill="#0C63AD" stroke="#0C63AD" stroke-miterlimit="10" stroke-linejoin="round"/>
<path d="M45.6914 59.85L47.8934 58.3994L50.3709 59.6576L48.046 61.1708L45.6914 59.85Z" fill="#0C63AD" stroke="#0C63AD" stroke-miterlimit="10" stroke-linejoin="round"/>
<path d="M42.1426 62.1792L44.3446 60.7285L46.8221 61.9868L44.4971 63.4999L42.1426 62.1792Z" fill="#0C63AD" stroke="#0C63AD" stroke-miterlimit="10" stroke-linejoin="round"/>
<path d="M38.6816 64.3655L40.8922 62.9229L43.3697 64.1812L41.0444 65.686L38.6816 64.3655Z" fill="#0C63AD" stroke="#0C63AD" stroke-miterlimit="10" stroke-linejoin="round"/>
<path d="M34.7109 66.7519L36.9132 65.3096L39.3907 66.5678L37.0655 68.0726L34.7109 66.7519Z" fill="#0C63AD" stroke="#0C63AD" stroke-miterlimit="10" stroke-linejoin="round"/>
<path d="M31.209 68.997L33.4113 67.5547L35.8888 68.8129L33.5636 70.3178L31.209 68.997Z" fill="#0C63AD" stroke="#0C63AD" stroke-miterlimit="10" stroke-linejoin="round"/>
<path d="M27.6016 71.0038L29.8038 69.5615L32.2811 70.8114L29.9561 72.3245L27.6016 71.0038Z" fill="#0C63AD" stroke="#0C63AD" stroke-miterlimit="10" stroke-linejoin="round"/>
<path d="M19.1211 76.6702L26.1395 72.1875L28.6168 73.4374L21.6394 77.902L19.1211 76.6702Z" fill="#0C63AD" stroke="#0C63AD" stroke-miterlimit="10" stroke-linejoin="round"/>
<path d="M24.3398 68.7551L26.5505 67.3125L29.0277 68.5624L26.7027 70.0756L24.3398 68.7551Z" fill="#0C63AD" stroke="#0C63AD" stroke-miterlimit="10" stroke-linejoin="round"/>
<path d="M20.5469 71.2434L22.7575 69.8008L25.2347 71.0507L22.9097 72.5639L20.5469 71.2434Z" fill="#0C63AD" stroke="#0C63AD" stroke-miterlimit="10" stroke-linejoin="round"/>
<path d="M15.2324 74.3596L17.443 72.917L19.9205 74.1753L17.5953 75.6801L15.2324 74.3596Z" fill="#0C63AD" stroke="#0C63AD" stroke-miterlimit="10" stroke-linejoin="round"/>
<path d="M62.738 61.4381L59.7414 59.8723L61.2071 58.8386L57.4707 56.8477L61.1867 54.8037L67.8644 58.2038L62.738 61.4381Z" fill="#0C63AD" stroke="#0C63AD" stroke-miterlimit="10" stroke-linejoin="round"/>
<path d="M39.4528 34.3572C39.4528 33.4407 40.9289 32.8839 41.3766 32.8335L41.5147 31.2297C40.0183 31.559 37.698 33.2977 37.7013 35.5693C37.6707 37.8295 40.5304 35.8725 40.5304 36.9398C40.5304 38.0658 38.2895 38.783 37.8025 38.7219L37.5479 40.394C39.2126 40.2816 42.3737 38.2689 42.2894 35.7672C42.26 33.3116 39.4528 35.3701 39.4528 34.3572ZM35.6467 37.3474C35.6467 35.3579 33.3223 36.6732 33.3392 38.6796L35.6467 37.3474ZM33.326 40.2262C33.448 41.9176 35.8241 40.2403 36.8526 39.2708L37.1081 40.6479C34.7034 43.0988 31.4943 44.259 31.4943 40.6475C31.4943 35.8331 37.4536 31.8703 37.4536 36.9567C37.4536 37.341 37.416 37.703 37.3904 37.8796L33.326 40.2262ZM41.6813 32.6576L42.599 32.1278V35.1545C42.599 36.745 42.9458 37.7314 44.4687 36.8522C45.0194 36.5343 45.4737 36.1121 45.7304 35.845V34.1447C44.8205 34.8667 44.3778 35.1887 44.3778 33.7882V27.5566L42.599 28.5841V30.6032L41.8198 31.0531L41.6813 32.6576ZM44.6808 30.9259L45.7291 30.3206L46.0937 29.3411L45.7337 28.7938L44.6808 29.4017V30.9259ZM21.414 50.0134L22.9654 41.9396L23.3809 49.0292L25.1224 48.0237L24.5913 38.9823L21.8733 40.5515L20.5405 47.6036L19.2082 42.0902L16.4902 43.6594L15.959 53.3147L17.7006 52.3092L18.1164 44.7396L19.6675 51.0223L21.414 50.0134Z" fill="#0061AF"/>
<path d="M29.3809 40.9655C29.3809 38.976 27.0565 40.2913 27.0734 42.2978L29.3809 40.9655ZM27.0602 43.8443C27.1822 45.5358 29.5583 43.8584 30.5868 42.889L30.8422 44.2661C28.4372 46.7172 25.2285 47.8771 25.2285 44.2656C25.2285 39.4512 31.1874 35.4886 31.1874 40.5751C31.1874 40.9593 31.1494 41.3216 31.1242 41.498L27.0602 43.8443Z" fill="#0061AF"/>
<path d="M46.6798 26.2285L48.0034 28.2395L46.6798 31.7928L45.3594 32.5551L46.6827 29.0021L45.3594 26.9908L46.6798 26.2285Z" fill="#0061AF"/>
<path d="M20.9944 54.3701V60.7497L19.7237 61.4834V56.3067L17.2297 57.7466V62.9232L15.959 63.6569V57.2773L20.9944 54.3701Z" fill="#0061AF"/>
<path d="M21.9805 56.9904C21.9805 55.0949 23.2591 52.9529 25.0032 51.946C26.7394 50.9436 28.0258 51.5951 28.0258 53.5002C28.0258 55.4052 26.7394 57.5417 25.0032 58.5441C23.2591 59.5511 21.9805 58.8859 21.9805 56.9904ZM26.7319 54.2472C26.7319 53.0353 25.9899 52.6341 25.0036 53.2035C24.0168 53.7732 23.2752 55.0305 23.2752 56.2429C23.2752 57.4549 24.0173 57.8561 25.0036 57.2866C25.9899 56.7167 26.7319 55.4591 26.7319 54.2472Z" fill="#0061AF"/>
<path d="M36.3062 45.5303V51.9098L29.0137 56.1201V49.7406L30.2845 49.0069V54.1836L32.0286 53.1766V48L33.2992 47.2663V52.443L35.0355 51.4406V46.2639L36.3062 45.5303Z" fill="#0061AF"/>
<path d="M41.902 43.5027L40.1339 44.5235V49.7001L38.8714 50.429V45.2524L37.1113 46.2686V45.0657L41.902 42.2998V43.5027Z" fill="#0061AF"/>
<path d="M46.1711 44.8471L43.606 46.3281L43.1166 47.9777L41.8066 48.7341L44.2691 40.9332L45.532 40.2041L48.0023 45.1569L46.6605 45.9316L46.1711 44.8471ZM45.7684 43.9588L44.8925 42.022L44.0165 44.9703L45.7684 43.9588Z" fill="#0061AF"/>
<path d="M54.4513 27.1253C59.7326 27.1253 64.014 22.8439 64.014 17.5626C64.014 12.2813 59.7326 8 54.4513 8C49.17 8 44.8887 12.2813 44.8887 17.5626C44.8887 22.8439 49.17 27.1253 54.4513 27.1253Z" fill="#0062AD" stroke="white" stroke-width="1.5"/>
<path d="M76.4083 53.6053C79.3953 51.614 81.8167 47.0896 81.8167 43.4998C81.8167 39.9099 79.3953 38.614 76.4083 40.6053C73.4214 42.5966 71 47.121 71 50.7109C71 54.3007 73.4214 55.5966 76.4083 53.6053Z" fill="#0062AD" stroke="white" stroke-width="1.5"/>
<path d="M50.2773 17.5619L53.3694 20.809L58.6261 14.3154" stroke="white" stroke-width="2" stroke-miterlimit="10" stroke-linecap="round" stroke-linejoin="round"/>
<path d="M75 48.4842L76.5408 49.9572L79.1603 43.2109" stroke="white" stroke-width="2" stroke-miterlimit="10" stroke-linecap="round" stroke-linejoin="round"/>
</svg>
