<svg width="100" height="100" viewBox="0 0 100 100" fill="none" xmlns="http://www.w3.org/2000/svg">
<mask id="mask0_3244_592" style="mask-type:alpha" maskUnits="userSpaceOnUse" x="0" y="0" width="100" height="100">
<rect width="100" height="100" fill="#D9D9D9"/>
</mask>
<g mask="url(#mask0_3244_592)">
<path d="M49.5536 90.1783C70.0177 90.1783 86.6071 80.6354 86.6071 68.8636C86.6071 57.0918 70.0177 47.5488 49.5536 47.5488C29.0894 47.5488 12.5 57.0918 12.5 68.8636C12.5 80.6354 29.0894 90.1783 49.5536 90.1783Z" fill="#DEEBF5"/>
<rect x="19.75" y="9.75" width="58.5" height="64.5" rx="3.25" fill="white" stroke="#0061B1" stroke-width="1.5"/>
<path d="M52.1618 66.05C52.7259 64.7159 53.1752 63.4143 53.4773 61.9871C53.6076 61.3718 53.9361 59.5249 53.7222 60.1146C53.1953 61.5674 52.7133 63.0783 52.2416 64.5544C51.7892 65.9697 51.2957 67.385 51.0912 68.8646C51.0012 69.516 50.937 70.432 50.4193 70.9078C49.8971 71.3877 50.0029 69.8434 50.0206 69.736C50.3159 67.9527 51.5819 66.4031 53.073 65.52C53.6359 65.1867 54.9567 64.3735 55.647 64.7134C56.3926 65.0805 56.4217 66.1699 56.6948 66.8626C56.7169 66.9185 56.9437 67.5363 57.1049 67.3807C57.7831 66.7262 58.0777 65.3408 58.4146 64.4837C58.639 63.9131 58.9185 62.6256 59.2347 63.7889C59.3657 64.271 59.454 65.2798 59.9294 64.4307C60.3717 63.6409 60.6569 62.6001 61.262 61.9223C61.3497 61.824 61.3811 62.1629 61.4101 62.2933C61.5119 62.751 61.5874 63.2147 61.6948 63.6711C61.7588 63.943 61.8589 64.6261 62.2643 64.519C63.5236 64.1866 64.7087 63.7065 66 63.5063" stroke="#0062AD" stroke-width="2" stroke-linecap="round"/>
<rect x="36" y="16" width="26" height="6" rx="3" fill="#DEEBF5"/>
<rect x="25" y="58" width="11" height="11" rx="5.5" fill="#DEEBF5"/>
<rect x="26" y="25" width="45" height="6" rx="3" fill="#DEEBF5"/>
<rect x="26" y="34" width="45" height="6" rx="3" fill="#DEEBF5"/>
<rect x="26" y="44" width="45" height="6" rx="3" fill="#DEEBF5"/>
<g clip-path="url(#clip0_3244_592)">
<path d="M92.5222 28.2961C93.0382 27.4024 92.7313 26.2571 91.8376 25.7411L88.7097 23.9352C87.816 23.4192 86.6706 23.7261 86.1546 24.6198L83.8328 28.6414L90.2003 32.3177L92.5222 28.2961Z" fill="#0062AD"/>
<path d="M67.1845 64.8312L74.3832 59.7154L68.0156 56.0391L67.1845 64.8312Z" fill="#0062AD"/>
<path d="M69.0388 55.7643L84.1066 29.6661L89.1751 32.5924L74.1073 58.6906L69.0388 55.7643Z" fill="#DEEBF5" stroke="#0062AD" stroke-width="1.5"/>
</g>
</g>
<defs>
<clipPath id="clip0_3244_592">
<rect width="7.35261" height="46.1795" fill="white" transform="translate(87.0898 23) rotate(30)"/>
</clipPath>
</defs>
</svg>
