<svg width="100" height="100" viewBox="0 0 100 100" fill="none" xmlns="http://www.w3.org/2000/svg">
<mask id="mask0_3244_803" style="mask-type:alpha" maskUnits="userSpaceOnUse" x="0" y="0" width="100" height="100">
<rect width="100" height="100" transform="matrix(-1 0 0 1 100 0)" fill="#D9D9D9"/>
</mask>
<g mask="url(#mask0_3244_803)">
<path d="M53.4508 87.6428C33.3376 87.6428 17.0325 78.4537 17.0325 67.1183C17.0325 55.7829 33.3376 46.5938 53.4508 46.5938C73.5641 46.5938 89.8691 55.7829 89.8691 67.1183C89.8691 78.4537 73.5641 87.6428 53.4508 87.6428Z" fill="#DEEBF5"/>
<path d="M57.5787 47.0247L72.4524 58.6559L89.1211 61.9562L61.7659 78.3221L45.1016 74.6772L33.312 62.2555L22.3161 61.8293L11.2126 48.8318L38.7202 32.6064L49.9583 45.5813L57.5787 47.0247Z" fill="white" stroke="#0061AF" stroke-width="1.5" stroke-miterlimit="10" stroke-linecap="round" stroke-linejoin="round"/>
<path d="M72.3281 58.6777L45.1747 74.6719" stroke="#0061AF" stroke-width="1.5" stroke-miterlimit="10" stroke-linecap="round" stroke-linejoin="round"/>
<path d="M76.1992 64.5225L56.4707 68.004L46.4613 54.8032L28.9086 57.2693L21.0751 48.2754" stroke="#0061AF" stroke-width="1.5" stroke-miterlimit="10" stroke-linecap="round" stroke-linejoin="round" stroke-dasharray="3 3"/>
<path d="M57.457 47.3936L33.1938 62.2505" stroke="#0061AF" stroke-width="1.5" stroke-miterlimit="10" stroke-linecap="round" stroke-linejoin="round"/>
<path d="M49.8652 45.5176L22.3396 61.7837" stroke="#0061AF" stroke-width="1.5" stroke-miterlimit="10" stroke-linecap="round" stroke-linejoin="round"/>
<path d="M76.283 63.6796C74.7745 60.6042 73.2683 57.5288 71.7598 54.4557C70.1369 51.1466 68.4705 47.6269 68.7635 43.943C68.9031 42.175 69.5532 40.377 70.8808 39.2177C71.7415 38.4656 72.8403 38.0236 73.9642 37.8616C76.7339 37.459 79.6066 38.7664 81.4058 40.9324C83.205 43.0983 83.9879 46.0164 83.862 48.8418C83.7361 51.6673 82.7541 54.4048 81.3669 56.86C79.9775 59.3153 78.1897 61.5159 76.283 63.6796Z" fill="#0061AF" stroke="#0061AF" stroke-width="1.5" stroke-miterlimit="10" stroke-linecap="round" stroke-linejoin="round"/>
<path d="M72.6535 38.1142C73.2304 37.7718 73.8187 37.4501 74.423 37.1539C75.4782 36.6356 76.6296 36.3509 77.8016 36.3209C77.8107 36.3209 77.8176 36.3209 77.8268 36.3209C78.4814 36.3047 79.1361 36.418 79.7427 36.6703C81.4068 37.3645 82.9107 38.4475 84.0987 39.8151C85.3005 41.1989 86.1749 42.8696 86.6258 44.6468C86.7677 45.2115 86.8364 45.7923 86.8318 46.3754C86.8249 47.9675 86.5686 49.5526 86.0307 51.0475C84.7099 54.7199 82.5239 58.0614 80.1433 61.2039C79.571 61.9606 78.8133 62.553 77.9504 62.9325L76.3023 63.6545" stroke="#0061AF" stroke-width="1.5" stroke-miterlimit="10" stroke-linecap="round" stroke-linejoin="round"/>
<path d="M72.843 49.441C71.6454 47.0101 72.1533 44.2949 73.9774 43.3765C75.8015 42.458 78.2511 43.6842 79.4487 46.1151C80.6463 48.546 80.1385 51.2611 78.3143 52.1796C76.4902 53.098 74.0406 51.8719 72.843 49.441Z" fill="white" stroke="#0061AF" stroke-width="1.5" stroke-miterlimit="10"/>
<path d="M75.8073 43.0752C75.116 44.341 75.1229 46.1737 75.9561 47.8699C76.8099 49.6008 78.2955 50.7208 79.7422 50.8898" stroke="#0061AF" stroke-width="1.5" stroke-miterlimit="10"/>
<path d="M39.4757 37C37.5833 33.1989 35.6937 29.3978 33.8013 25.5996C31.7653 21.5096 29.6748 17.1594 30.0423 12.6061C30.2175 10.4209 31.0331 8.19863 32.6986 6.76571C33.7783 5.83617 35.1567 5.28989 36.5667 5.08968C40.0414 4.59202 43.6453 6.20798 45.9024 8.88505C48.1595 11.5621 49.1416 15.1687 48.9836 18.6609C48.8257 22.1531 47.5938 25.5367 45.8536 28.5712C44.1105 31.6058 41.8677 34.3258 39.4757 37Z" fill="#0061AF" stroke="#0061AF" stroke-width="1.5" stroke-miterlimit="10" stroke-linecap="round" stroke-linejoin="round"/>
<path d="M34 6.16688C34.773 5.75343 35.5613 5.36511 36.3711 5.00753C37.7852 4.38176 39.3281 4.03815 40.8987 4.00183C40.9109 4.00183 40.9201 4.00183 40.9324 4.00183C41.8097 3.98228 42.687 4.11916 43.4999 4.42367C45.7299 5.26175 47.7452 6.56916 49.3372 8.22019C50.9476 9.89077 52.1194 11.9078 52.7236 14.0533C52.9138 14.7349 53.0058 15.4361 52.9997 16.1401C52.9905 18.0621 52.647 19.9757 51.9261 21.7804C50.1562 26.2139 47.2268 30.2478 44.0367 34.0416C43.2698 34.9551 42.2545 35.6702 41.0981 36.1284L39.5 37" stroke="#0061AF" stroke-width="1.5" stroke-miterlimit="10" stroke-linecap="round" stroke-linejoin="round"/>
<path d="M35.1589 19.722C33.6371 16.633 34.2824 13.1827 36.6004 12.0156C38.9184 10.8485 42.0312 12.4066 43.553 15.4956C45.0749 18.5847 44.4295 22.035 42.1115 23.202C39.7936 24.3691 36.6808 22.8111 35.1589 19.722Z" fill="white" stroke="#0061AF" stroke-width="1.5" stroke-miterlimit="10"/>
<path d="M39.45 12C38.8263 13.6198 38.8325 15.9651 39.5842 18.1356C40.3545 20.3506 41.6948 21.7838 43 22" stroke="#0061AF" stroke-width="1.5" stroke-miterlimit="10"/>
</g>
<path d="M22.043 49.5078V36.1594C22.043 35.6134 22.372 35.1252 22.8818 34.9133L34.1028 30.2946C34.1221 30.2882 34.1415 30.3011 34.1415 30.3203V44.7286V44.735L22.6689 49.9125C22.3785 50.0474 22.043 49.829 22.043 49.5078Z" fill="white" stroke="#0062AD" stroke-width="1.5" stroke-miterlimit="10"/>
<path d="M20.8792 34.6028L9.58102 30.0039C9.56154 29.9976 9.56154 29.972 9.58102 29.9593L21.7428 25.0478C21.9051 24.9841 22.0804 24.9841 22.2363 25.0478L34.0539 29.8827C34.1708 29.9274 34.1708 30.0932 34.0539 30.1379L23.1064 34.6028C22.3921 34.909 21.587 34.9026 20.8792 34.6028Z" fill="white" stroke="#0062AD" stroke-width="1.5" stroke-miterlimit="10"/>
<path d="M9.8036 29.9276C9.68821 29.8818 9.56641 29.9669 9.56641 30.0912L9.79078 44.3958C9.79078 44.7688 10.0151 45.1025 10.3549 45.24L22.0221 49.9515C22.0349 49.958 22.0477 49.9449 22.0413 49.9384L22.0093 35.6861C22.0093 35.3785 21.8298 35.1103 21.5541 34.9859L9.8036 29.9276Z" fill="white" stroke="#0062AD" stroke-width="1.5" stroke-miterlimit="10"/>
<path d="M27.7168 32.8578V38.6112L31.1195 37.0819V31.4277L27.7168 32.8578Z" fill="#0062AD" stroke="#0062AD" stroke-miterlimit="10"/>
<path d="M27.5635 32.9397L24.6895 31.4881L28.2176 29.915L31.1168 31.3801L27.5635 32.9397Z" fill="#0062AD" stroke="#0062AD" stroke-miterlimit="10"/>
<path d="M15.8055 32.5616L28.0931 27.3702L22.4582 25.1017C22.1657 24.9683 21.8342 24.9683 21.5418 25.089L10.0184 30.0072C9.92094 30.0517 9.92094 30.1915 10.0184 30.2296L15.8055 32.5616Z" fill="#0062AD" stroke="#0062AD" stroke-miterlimit="10"/>
<path d="M57.4766 73.5791V62.3704C57.4766 61.9119 57.7529 61.502 58.1809 61.324L67.6032 57.4457C67.6195 57.4403 67.6357 57.4511 67.6357 57.4673V69.566V69.5713L58.0021 73.9189C57.7583 74.0321 57.4766 73.8488 57.4766 73.5791Z" fill="white" stroke="#0062AD" stroke-width="1.5" stroke-miterlimit="10"/>
<path d="M56.4993 61.0635L47.0123 57.2018C46.9959 57.1964 46.9959 57.175 47.0123 57.1643L57.2245 53.0402C57.3608 52.9866 57.508 52.9866 57.6389 53.0402L67.5622 57.1C67.6603 57.1375 67.6603 57.2768 67.5622 57.3143L58.3695 61.0635C57.7697 61.3206 57.0937 61.3152 56.4993 61.0635Z" fill="white" stroke="#0062AD" stroke-width="1.5" stroke-miterlimit="10"/>
<path d="M47.1992 57.1385C47.1023 57.1 47 57.1715 47 57.2759L47.1884 69.2874C47.1884 69.6006 47.3768 69.8809 47.6621 69.9963L57.459 73.9525C57.4698 73.958 57.4806 73.947 57.4752 73.9415L57.4483 61.9739C57.4483 61.7156 57.2976 61.4904 57.0661 61.386L47.1992 57.1385Z" fill="white" stroke="#0062AD" stroke-width="1.5" stroke-miterlimit="10"/>
<path d="M62.2402 59.5983V64.4295L65.0975 63.1452V58.3975L62.2402 59.5983Z" fill="#0062AD" stroke="#0062AD" stroke-miterlimit="10"/>
<path d="M62.1106 59.6677L59.6973 58.4488L62.6598 57.1279L65.0943 58.3581L62.1106 59.6677Z" fill="#0062AD" stroke="#0062AD" stroke-miterlimit="10"/>
<path d="M52.2392 59.3495L62.5571 54.9902L57.8254 53.0854C57.5798 52.9734 57.3015 52.9734 57.0559 53.0747L47.3798 57.2045C47.2979 57.2419 47.2979 57.3593 47.3798 57.3913L52.2392 59.3495Z" fill="#0062AD" stroke="#0062AD" stroke-miterlimit="10"/>
</svg>
