<svg width="37" height="37" viewBox="0 0 37 37" fill="none" xmlns="http://www.w3.org/2000/svg">
<path d="M6.16667 27.7499V27.4416C6.16667 24.8513 6.16667 23.5562 6.67076 22.5669C7.11418 21.6966 7.82171 20.9891 8.69196 20.5457C9.6813 20.0416 10.9764 20.0416 13.5667 20.0416H23.4333C26.0236 20.0416 27.3187 20.0416 28.308 20.5457C29.1783 20.9891 29.8858 21.6966 30.3292 22.5669C30.8333 23.5562 30.8333 24.8513 30.8333 27.4416V27.7499M6.16667 27.7499C4.46379 27.7499 3.08334 29.1304 3.08334 30.8333C3.08334 32.5361 4.46379 33.9166 6.16667 33.9166C7.86955 33.9166 9.25 32.5361 9.25 30.8333C9.25 29.1304 7.86955 27.7499 6.16667 27.7499ZM30.8333 27.7499C29.1305 27.7499 27.75 29.1304 27.75 30.8333C27.75 32.5361 29.1305 33.9166 30.8333 33.9166C32.5362 33.9166 33.9167 32.5361 33.9167 30.8333C33.9167 29.1304 32.5362 27.7499 30.8333 27.7499ZM18.5 27.7499C16.7971 27.7499 15.4167 29.1304 15.4167 30.8333C15.4167 32.5361 16.7971 33.9166 18.5 33.9166C20.2029 33.9166 21.5833 32.5361 21.5833 30.8333C21.5833 29.1304 20.2029 27.7499 18.5 27.7499ZM18.5 27.7499V12.3333M9.25 12.3333H27.75C29.1867 12.3333 29.905 12.3333 30.4716 12.0985C31.2271 11.7856 31.8274 11.1854 32.1403 10.4299C32.375 9.86323 32.375 9.1449 32.375 7.70825C32.375 6.2716 32.375 5.55327 32.1403 4.98664C31.8274 4.23114 31.2271 3.6309 30.4716 3.31796C29.905 3.08325 29.1867 3.08325 27.75 3.08325H9.25C7.81335 3.08325 7.09502 3.08325 6.5284 3.31796C5.77289 3.6309 5.17265 4.23114 4.85971 4.98664C4.625 5.55327 4.625 6.2716 4.625 7.70825C4.625 9.1449 4.625 9.86323 4.85971 10.4299C5.17265 11.1854 5.77289 11.7856 6.5284 12.0985C7.09502 12.3333 7.81335 12.3333 9.25 12.3333Z" stroke="#2361A9" stroke-width="2" stroke-linecap="round" stroke-linejoin="round"/>
</svg>
