<svg width="37" height="37" viewBox="0 0 37 37" fill="none" xmlns="http://www.w3.org/2000/svg">
<g clip-path="url(#clip0_3240_185)">
<path d="M17.5 36C8.5 36 1 28.165 1 18.5C1 8.83502 8.83502 1 18.5 1C28.165 1 36 8.83502 36 18.5C36 19.0906 35.9707 19.6744 35.9136 20.25M18.5 8V18.5L25.0422 21.7711" stroke="#2361A9" stroke-width="2" stroke-linecap="round" stroke-linejoin="round"/>
<path d="M34.7465 34.703V36.0711C34.7465 36.4376 34.4494 36.7347 34.0829 36.7347C33.7164 36.7347 33.4194 36.4376 33.4194 36.0711V34.6866L31.7501 31.9147C31.5079 31.5126 31.7975 31 32.267 31C32.4788 31 32.6751 31.111 32.7842 31.2925L34.1403 33.5478L35.5096 31.2705C35.6105 31.1026 35.792 31 35.9878 31C36.4219 31 36.6897 31.4738 36.4659 31.8457L34.7465 34.703Z" fill="#2361A9" stroke="#2361A9" stroke-width="0.2"/>
<path d="M30.298 35.5058H27.6354L27.2848 36.3542C27.1896 36.5845 26.965 36.7347 26.7159 36.7347C26.2701 36.7347 25.9722 36.2756 26.1536 35.8685L28.0566 31.599C28.219 31.2347 28.5805 31 28.9794 31C29.3779 31 29.7391 31.2342 29.9017 31.5979L31.802 35.8478C31.9883 36.2644 31.6834 36.7347 31.2271 36.7347C30.9722 36.7347 30.7424 36.581 30.645 36.3454L30.298 35.5058ZM29.8802 34.4981L28.9708 32.3026L28.0614 34.4981H29.8802Z" fill="#2361A9" stroke="#2361A9" stroke-width="0.2"/>
<path d="M20 32.178C20 31.5274 20.5274 31 21.178 31H22.6052C23.2278 31 23.7767 31.1202 24.2518 31.3605C24.7325 31.5953 25.1039 31.9285 25.366 32.3599C25.6336 32.7914 25.7674 33.2939 25.7674 33.8673C25.7674 34.4408 25.6336 34.9433 25.366 35.3747C25.1039 35.8062 24.7325 36.1421 24.2518 36.3824C23.7767 36.6172 23.2278 36.7347 22.6052 36.7347H21.178C20.5274 36.7347 20 36.2073 20 35.5567V32.178ZM22.5396 35.6451C23.1131 35.6451 23.5691 35.4867 23.9078 35.1699C24.2518 34.8477 24.4239 34.4135 24.4239 33.8673C24.4239 33.3212 24.2518 32.8897 23.9078 32.5729C23.5691 32.2507 23.1131 32.0896 22.5396 32.0896H21.3272V35.6451H22.5396Z" fill="#2361A9" stroke="#2361A9" stroke-width="0.2"/>
<path d="M35.6375 27.728C35.9913 27.728 36.2782 27.4412 36.2782 27.0873C36.2782 26.7335 35.9913 26.4466 35.6375 26.4466H35.3443V26.1002C35.3443 25.6988 35.0189 25.3734 34.6175 25.3734C34.2162 25.3734 33.8908 25.6988 33.8908 26.1002V26.4466H32.647L34.3865 24.0533C34.7059 23.6139 34.392 22.9977 33.8488 22.9977C33.6385 22.9977 33.4406 23.0971 33.3152 23.2659L30.9135 26.4972C30.8147 26.6302 30.7613 26.7914 30.7613 26.9571C30.7613 27.3829 31.1065 27.728 31.5323 27.728H33.8499V28.1851C33.8499 28.5978 34.1844 28.9323 34.5971 28.9323C35.0097 28.9323 35.3443 28.5978 35.3443 28.1851V27.728H35.6375Z" fill="#2361A9" stroke="#2361A9" stroke-width="0.2"/>
<path d="M30.1132 24.3347C30.1132 23.5963 29.5145 22.9977 28.7761 22.9977H28.0716C27.7222 22.9977 27.4391 23.2808 27.4391 23.6302C27.4391 23.9795 27.7222 24.2627 28.0716 24.2627H28.586V28.1687C28.586 28.5905 28.9279 28.9323 29.3496 28.9323C29.7713 28.9323 30.1132 28.5905 30.1132 28.1687V24.3347Z" fill="#2361A9" stroke="#2361A9" stroke-width="0.2"/>
<path d="M25.5159 25.8646C25.1503 25.8646 24.8539 26.161 24.8539 26.5267C24.8539 26.8923 25.1503 27.1887 25.5159 27.1887H26.8103C27.176 27.1887 27.4723 26.8923 27.4723 26.5267C27.4723 26.161 27.176 25.8646 26.8103 25.8646H25.5159Z" fill="#2361A9" stroke="#2361A9" stroke-width="0.3"/>
<path d="M19.6093 27.6052L19.6092 27.6052L19.6099 27.6065C19.83 28.0638 20.1341 28.4175 20.5231 28.6635C20.9118 28.9093 21.3539 29.0313 21.8464 29.0313C22.3389 29.0313 22.781 28.9093 23.1696 28.6635C23.5589 28.4174 23.8603 28.0634 24.075 27.6059C24.2957 27.1418 24.4041 26.594 24.4041 25.9656C24.4041 25.3375 24.2958 24.7924 24.075 24.3336C23.8604 23.8708 23.5591 23.514 23.1696 23.2678C22.781 23.022 22.3389 22.9 21.8464 22.9C21.3539 22.9 20.9118 23.022 20.5231 23.2678C20.1338 23.514 19.8297 23.8707 19.6097 24.3334L19.6097 24.3334L19.6094 24.3338C19.3943 24.7925 19.2887 25.3375 19.2887 25.9656C19.2887 26.5938 19.3943 27.1413 19.6093 27.6052ZM22.5827 27.3025L22.5826 27.3025L22.582 27.3036C22.4032 27.5767 22.1611 27.7089 21.8464 27.7089C21.5378 27.7089 21.2951 27.5772 21.1105 27.3031C20.9301 27.0271 20.8322 26.5867 20.8322 25.9656C20.8322 25.3446 20.9301 24.9042 21.1105 24.6282C21.2951 24.3541 21.5378 24.2224 21.8464 24.2224C22.1611 24.2224 22.4032 24.3546 22.582 24.6277L22.5819 24.6277L22.5827 24.6288C22.7681 24.9045 22.8687 25.3445 22.8687 25.9656C22.8687 26.5868 22.7681 27.0268 22.5827 27.3025Z" fill="#2361A9" stroke="#2361A9" stroke-width="0.2"/>
<path d="M18.5741 24.3347C18.5741 23.5963 17.9755 22.9977 17.237 22.9977H16.5325C16.1832 22.9977 15.9 23.2808 15.9 23.6302C15.9 23.9795 16.1832 24.2627 16.5325 24.2627H17.0469V28.1687C17.0469 28.5905 17.3888 28.9323 17.8105 28.9323C18.2322 28.9323 18.5741 28.5905 18.5741 28.1687V24.3347Z" fill="#2361A9" stroke="#2361A9" stroke-width="0.2"/>
</g>
<defs>
<clipPath id="clip0_3240_185">
<rect width="37" height="37" fill="white"/>
</clipPath>
</defs>
</svg>
